<?xml version="1.0" standalone="no"?>
<!DOCTYPE svg PUBLIC "-//W3C//DTD SVG 20010904//EN"
 "http://www.w3.org/TR/2001/REC-SVG-20010904/DTD/svg10.dtd">
<svg version="1.0" xmlns="http://www.w3.org/2000/svg"
 width="2696.000000pt" height="1248.000000pt" viewBox="0 0 2696.000000 1248.000000"
 preserveAspectRatio="xMidYMid meet">
<metadata>
Created by potrace 1.15, written by Peter Selinger 2001-2017
</metadata>
<g transform="translate(0.000000,1248.000000) scale(0.100000,-0.100000)"
fill="#000000" stroke="none">
<path d="M8120 10460 l0 -340 470 0 470 0 0 -40 c0 -22 5 -40 10 -40 6 0 10
18 10 40 l0 40 540 0 539 0 3 168 c2 92 2 245 0 340 l-3 172 -1019 0 -1020 0
0 -340z m719 94 c12 -15 21 -33 21 -40 0 -22 -37 -16 -43 7 -4 16 -12 20 -39
17 -49 -5 -45 -38 7 -58 55 -21 65 -28 76 -56 6 -18 5 -35 -5 -59 -17 -41 -67
-55 -112 -33 -35 16 -56 65 -34 78 10 6 19 0 32 -21 20 -33 57 -39 79 -13 18
22 2 44 -46 61 -54 18 -65 31 -65 71 0 48 24 72 71 72 29 0 42 -6 58 -26z
m153 -61 c9 -10 19 -33 23 -50 l7 -33 -56 0 c-60 0 -61 -1 -46 -31 13 -23 48
-25 56 -4 4 8 14 15 24 15 25 0 15 -37 -16 -57 -27 -17 -64 -12 -88 13 -21 21
-21 112 0 142 19 27 74 30 96 5z m168 -38 c7 -30 16 -55 20 -55 4 0 13 25 20
55 13 55 13 55 52 55 l38 0 0 -90 c0 -83 -1 -90 -20 -90 -18 0 -20 7 -21 78
l-1 77 -26 -77 c-34 -102 -50 -103 -82 -4 -23 69 -27 73 -47 65 -21 -7 -23
-15 -23 -74 0 -58 -2 -65 -20 -65 -18 0 -20 7 -20 89 l0 88 58 2 59 1 13 -55z
m402 38 c9 -10 19 -33 23 -50 l7 -33 -56 0 c-60 0 -61 -1 -46 -31 13 -23 48
-25 56 -4 4 8 14 15 24 15 25 0 15 -37 -16 -57 -27 -17 -64 -12 -88 13 -21 21
-21 112 0 142 19 27 74 30 96 5z"/>
<path d="M1059 9941 c-75 -24 -109 -76 -109 -165 0 -108 45 -166 135 -174 67
-5 103 8 133 51 26 40 28 53 6 61 -20 8 -17 10 -38 -31 -35 -70 -145 -63 -180
12 -31 65 -13 165 35 199 13 9 41 16 63 16 31 0 45 -7 72 -35 20 -22 38 -33
48 -29 14 5 14 9 1 35 -9 16 -25 35 -38 43 -28 19 -94 28 -128 17z"/>
<path d="M3270 9878 c0 -59 -1 -60 -18 -45 -21 19 -74 22 -104 6 -39 -21 -61
-115 -39 -172 22 -58 89 -85 142 -57 13 7 19 7 19 0 0 -5 9 -10 20 -10 19 0
20 7 20 170 0 163 -1 170 -20 170 -18 0 -20 -7 -20 -62z m-22 -78 c30 -29 32
-120 2 -150 -47 -47 -110 -4 -110 75 0 79 59 120 108 75z"/>
<path d="M1858 9919 c-11 -6 -18 -22 -18 -39 0 -20 -5 -30 -15 -30 -8 0 -15
-7 -15 -15 0 -8 7 -15 15 -15 12 0 15 -17 15 -91 0 -110 8 -129 56 -129 29 0
35 3 30 16 -3 9 -6 18 -6 20 0 2 -9 4 -20 4 -19 0 -20 7 -20 90 0 83 1 90 20
90 11 0 20 7 20 15 0 8 -9 15 -19 15 -16 0 -20 8 -23 39 -3 35 -5 38 -20 30z"/>
<path d="M4068 9919 c-11 -6 -18 -22 -18 -39 0 -20 -5 -30 -15 -30 -8 0 -15
-7 -15 -15 0 -8 7 -15 15 -15 12 0 15 -17 15 -91 0 -110 8 -129 56 -129 29 0
35 3 30 16 -3 9 -6 18 -6 20 0 2 -9 4 -20 4 -19 0 -20 7 -20 90 0 83 1 90 20
90 11 0 20 7 20 15 0 8 -9 15 -19 15 -16 0 -20 8 -23 39 -3 35 -5 38 -20 30z"/>
<path d="M1329 9822 c-40 -36 -51 -109 -25 -164 30 -63 119 -79 175 -32 34 29
38 42 16 50 -9 4 -23 -4 -36 -20 -35 -45 -107 -27 -124 31 -6 22 -4 22 87 25
l93 3 -4 30 c-4 40 -27 82 -50 95 -39 20 -98 12 -132 -18z"/>
<path d="M1560 9725 c0 -116 1 -125 19 -125 17 0 19 9 23 91 3 81 6 93 27 110
28 23 54 24 75 3 12 -12 16 -37 16 -110 0 -87 1 -94 20 -94 19 0 20 7 20 105
0 92 -3 108 -20 125 -24 24 -86 27 -118 4 -20 -14 -22 -14 -22 0 0 9 -9 16
-20 16 -19 0 -20 -7 -20 -125z"/>
<path d="M2145 9825 c-14 -13 -25 -29 -25 -35 0 -17 29 -11 50 10 36 36 117
17 109 -25 -3 -15 -19 -22 -69 -32 -70 -14 -100 -38 -100 -79 0 -38 34 -64 83
-64 24 0 52 7 63 15 25 19 34 19 34 0 0 -9 9 -15 21 -15 17 0 20 4 15 23 -3
12 -6 59 -6 105 0 105 -14 122 -95 122 -46 0 -60 -4 -80 -25z"/>
<path d="M2590 9835 c0 -12 14 -15 70 -15 39 0 70 -3 70 -7 0 -5 -34 -46 -75
-93 -103 -117 -102 -120 36 -120 100 0 110 2 107 18 -3 15 -14 17 -81 15 -42
-1 -77 1 -77 5 0 4 34 46 75 94 41 48 75 94 75 102 0 13 -16 16 -100 16 -82 0
-100 -3 -100 -15z"/>
<path d="M2869 9822 c-40 -36 -51 -109 -25 -164 30 -63 119 -79 175 -32 34 29
38 42 16 50 -9 4 -23 -4 -36 -20 -35 -45 -107 -27 -124 31 -6 22 -4 22 87 25
l93 3 -4 30 c-4 40 -27 82 -50 95 -39 20 -98 12 -132 -18z"/>
<path d="M3539 9822 c-40 -36 -51 -109 -25 -164 30 -63 119 -79 175 -32 34 29
38 42 16 50 -9 4 -23 -4 -36 -20 -35 -45 -107 -27 -124 31 -6 22 -4 22 87 25
l93 3 -4 30 c-4 40 -27 82 -50 95 -39 20 -98 12 -132 -18z"/>
<path d="M3770 9725 c0 -116 1 -125 19 -125 17 0 19 9 23 91 3 81 6 93 27 110
28 23 54 24 75 3 12 -12 16 -37 16 -110 0 -87 1 -94 20 -94 19 0 20 7 20 105
0 92 -3 108 -20 125 -24 24 -86 27 -118 4 -20 -14 -22 -14 -22 0 0 9 -9 16
-20 16 -19 0 -20 -7 -20 -125z"/>
<path d="M4324 9833 c78 -197 89 -236 75 -262 -8 -14 -25 -27 -37 -29 -28 -4
-31 -42 -3 -42 33 0 51 11 66 40 15 30 115 292 115 303 0 4 -8 7 -18 7 -13 0
-26 -24 -53 -101 l-35 -101 -36 98 c-29 83 -39 100 -58 102 -19 3 -21 0 -16
-15z"/>
<path d="M1878 9399 c-11 -6 -18 -22 -18 -39 0 -20 -5 -30 -15 -30 -8 0 -15
-7 -15 -15 0 -8 7 -15 15 -15 12 0 15 -17 15 -91 0 -110 8 -129 56 -129 29 0
35 3 30 16 -3 9 -6 18 -6 20 0 2 -9 4 -20 4 -19 0 -20 7 -20 90 0 83 1 90 20
90 11 0 20 7 20 15 0 8 -9 15 -19 15 -16 0 -20 8 -23 39 -3 35 -5 38 -20 30z"/>
<path d="M2148 9399 c-11 -6 -18 -22 -18 -39 0 -20 -5 -30 -15 -30 -8 0 -15
-7 -15 -15 0 -8 7 -15 15 -15 12 0 15 -17 15 -91 0 -110 8 -129 56 -129 29 0
35 3 30 16 -3 9 -6 18 -6 20 0 2 -9 4 -20 4 -19 0 -20 7 -20 90 0 83 1 90 20
90 11 0 20 7 20 15 0 8 -9 15 -19 15 -16 0 -20 8 -23 39 -3 35 -5 38 -20 30z"/>
<path d="M950 9160 c0 -163 1 -170 20 -170 18 0 20 7 20 55 0 51 10 69 25 45
3 -5 24 -10 47 -10 31 0 46 6 68 30 48 52 46 154 -5 198 -31 27 -90 30 -117 5
-17 -15 -18 -15 -18 0 0 10 -8 17 -20 17 -19 0 -20 -7 -20 -170z m154 118 c26
-41 24 -120 -4 -148 -47 -47 -110 -4 -110 75 0 55 30 95 70 95 20 0 34 -8 44
-22z"/>
<path d="M1264 9319 c-32 -16 -54 -62 -54 -114 0 -83 37 -124 111 -125 81 0
131 68 115 156 -11 56 -54 94 -108 93 -24 0 -52 -5 -64 -10z m99 -33 c42 -32
40 -143 -3 -166 -57 -31 -110 11 -110 87 0 72 63 117 113 79z"/>
<path d="M1590 9205 c0 -116 1 -125 19 -125 17 0 19 9 23 91 3 81 6 93 27 110
28 23 54 24 75 3 12 -12 16 -37 16 -110 0 -87 1 -94 20 -94 19 0 20 7 20 105
0 92 -3 108 -20 125 -24 24 -86 27 -118 4 -20 -14 -22 -14 -22 0 0 9 -9 16
-20 16 -19 0 -20 -7 -20 -125z"/>
<path d="M2304 9319 c-32 -16 -54 -62 -54 -114 0 -83 37 -124 111 -125 81 0
131 68 115 156 -11 56 -54 94 -108 93 -24 0 -52 -5 -64 -10z m99 -33 c42 -32
40 -143 -3 -166 -57 -31 -110 11 -110 87 0 72 63 117 113 79z"/>
<path d="M2685 9305 c-14 -13 -25 -29 -25 -35 0 -17 29 -11 50 10 36 36 117
17 109 -25 -3 -15 -19 -22 -69 -32 -70 -14 -100 -38 -100 -79 0 -38 34 -64 83
-64 24 0 52 7 63 15 25 19 34 19 34 0 0 -9 9 -15 21 -15 17 0 20 4 15 23 -3
12 -6 59 -6 105 0 105 -14 122 -95 122 -46 0 -60 -4 -80 -25z"/>
<path d="M2930 9160 c0 -163 1 -170 20 -170 18 0 20 7 20 55 0 51 10 69 25 45
3 -5 24 -10 47 -10 31 0 46 6 68 30 48 52 46 154 -5 198 -31 27 -90 30 -117 5
-17 -15 -18 -15 -18 0 0 10 -8 17 -20 17 -19 0 -20 -7 -20 -170z m154 118 c26
-41 24 -120 -4 -148 -47 -47 -110 -4 -110 75 0 55 30 95 70 95 20 0 34 -8 44
-22z"/>
<path d="M3190 9160 c0 -163 1 -170 20 -170 18 0 20 7 20 55 0 51 10 69 25 45
3 -5 24 -10 47 -10 31 0 46 6 68 30 48 52 46 154 -5 198 -31 27 -90 30 -117 5
-17 -15 -18 -15 -18 0 0 10 -8 17 -20 17 -19 0 -20 -7 -20 -170z m154 118 c26
-41 24 -120 -4 -148 -47 -47 -110 -4 -110 75 0 55 30 95 70 95 20 0 34 -8 44
-22z"/>
<path d="M3482 9313 c-52 -46 -25 -103 57 -123 54 -13 77 -31 68 -55 -14 -34
-105 -30 -114 6 -3 11 -12 19 -21 17 -26 -5 -25 -26 2 -53 36 -36 116 -36 151
0 49 48 25 96 -61 121 -62 18 -83 37 -64 59 19 23 76 19 94 -6 9 -13 21 -19
30 -16 23 9 20 23 -10 46 -34 27 -103 28 -132 4z"/>
<path d="M11185 8911 c7 -325 7 -329 -13 -340 -35 -19 -51 -13 -109 42 -31 28
-53 47 -50 40 9 -14 -100 -81 -144 -90 -16 -3 -26 -9 -23 -14 5 -9 -75 -55
-89 -51 -5 1 -6 -2 -2 -8 8 -13 426 -261 435 -258 3 2 104 59 223 128 l217
125 0 252 0 251 -216 126 c-118 69 -220 126 -226 126 -7 0 -8 -100 -3 -329z
m251 -15 c10 -16 14 -41 12 -68 l-3 -43 59 -5 c66 -6 90 -26 70 -57 -8 -13
-27 -19 -68 -21 l-56 -3 0 -49 c0 -37 -5 -55 -20 -70 -40 -40 -70 -12 -70 66
l0 54 -54 0 c-36 0 -60 5 -70 16 -38 37 -10 64 66 64 l58 0 0 51 c0 28 5 59
10 70 15 26 46 24 66 -5z"/>
<path d="M20640 8900 l0 -170 105 0 c98 0 105 1 105 20 0 18 -7 20 -85 20
l-85 0 0 150 c0 143 -1 150 -20 150 -19 0 -20 -7 -20 -170z"/>
<path d="M21828 9049 c-11 -6 -18 -22 -18 -39 0 -20 -5 -30 -15 -30 -8 0 -15
-7 -15 -15 0 -8 7 -15 15 -15 12 0 15 -17 15 -91 0 -110 8 -129 56 -129 29 0
35 3 30 16 -3 9 -6 18 -6 20 0 2 -9 4 -20 4 -19 0 -20 7 -20 90 0 83 1 90 20
90 11 0 20 7 20 15 0 8 -9 15 -19 15 -16 0 -20 8 -23 39 -3 35 -5 38 -20 30z"/>
<path d="M23588 9049 c-11 -6 -18 -22 -18 -39 0 -20 -5 -30 -15 -30 -8 0 -15
-7 -15 -15 0 -8 7 -15 15 -15 12 0 15 -17 15 -91 0 -110 8 -129 56 -129 29 0
35 3 30 16 -3 9 -6 18 -6 20 0 2 -9 4 -20 4 -19 0 -20 7 -20 90 0 83 1 90 20
90 11 0 20 7 20 15 0 8 -9 15 -19 15 -16 0 -20 8 -23 39 -3 35 -5 38 -20 30z"/>
<path d="M13794 8929 c26 -29 61 -72 77 -95 l29 -42 -46 -56 c-45 -54 -48 -56
-96 -56 l-50 0 4 -46 c3 -45 2 -47 -59 -104 -34 -32 -102 -85 -150 -117 -78
-51 -88 -61 -85 -85 3 -21 10 -28 35 -34 69 -17 212 -1 290 31 15 6 17 1 17
-44 0 -34 4 -51 13 -51 26 0 141 62 198 106 32 26 87 83 121 127 141 181 160
203 195 229 20 15 57 35 82 44 47 18 81 41 81 56 0 4 -46 8 -102 8 -99 1 -102
1 -69 15 18 8 53 15 77 15 24 0 44 3 44 7 0 4 -14 21 -30 37 -17 17 -43 46
-59 64 -27 29 -35 32 -85 32 -35 0 -89 -11 -146 -30 -132 -44 -203 -39 -295
18 l-40 25 49 -54z"/>
<path d="M20934 8969 c-32 -16 -54 -62 -54 -114 0 -83 37 -124 111 -125 81 0
131 68 115 156 -11 56 -54 94 -108 93 -24 0 -52 -5 -64 -10z m99 -33 c42 -32
40 -143 -3 -166 -57 -31 -110 11 -110 87 0 72 63 117 113 79z"/>
<path d="M21197 8969 c-44 -26 -61 -122 -32 -179 29 -57 87 -76 133 -44 21 15
22 14 22 -14 0 -38 -19 -60 -56 -68 -24 -5 -37 -1 -51 13 -30 30 -53 36 -53
14 0 -34 38 -56 97 -56 48 0 58 4 79 28 23 27 24 34 24 173 0 121 -2 144 -15
144 -8 0 -15 -7 -15 -16 0 -14 -2 -14 -22 0 -25 18 -84 21 -111 5z m93 -29
c41 -22 47 -122 9 -156 -48 -43 -109 -4 -109 71 0 72 48 113 100 85z"/>
<path d="M21442 8963 c-52 -46 -25 -103 57 -123 54 -13 77 -31 68 -55 -14 -34
-105 -30 -114 6 -3 11 -12 19 -21 17 -26 -5 -25 -26 2 -53 36 -36 116 -36 151
0 49 48 25 96 -61 121 -62 18 -83 37 -64 59 19 23 76 19 94 -6 9 -13 21 -19
30 -16 23 9 20 23 -10 46 -34 27 -103 28 -132 4z"/>
<path d="M22125 8955 c-14 -13 -25 -29 -25 -35 0 -17 29 -11 50 10 36 36 117
17 109 -25 -3 -15 -19 -22 -69 -32 -70 -14 -100 -38 -100 -79 0 -38 34 -64 83
-64 24 0 52 7 63 15 25 19 34 19 34 0 0 -9 9 -15 21 -15 17 0 20 4 15 23 -3
12 -6 59 -6 105 0 105 -14 122 -95 122 -46 0 -60 -4 -80 -25z"/>
<path d="M22360 8855 c0 -116 1 -125 19 -125 17 0 19 9 23 91 3 81 6 93 27
110 28 23 54 24 75 3 12 -12 16 -37 16 -110 0 -87 1 -94 20 -94 19 0 20 7 20
105 0 92 -3 108 -20 125 -24 24 -86 27 -118 4 -20 -14 -22 -14 -22 0 0 9 -9
16 -20 16 -19 0 -20 -7 -20 -125z"/>
<path d="M22652 8963 c-52 -46 -25 -103 57 -123 54 -13 77 -31 68 -55 -14 -34
-105 -30 -114 6 -3 11 -12 19 -21 17 -26 -5 -25 -26 2 -53 36 -36 116 -36 151
0 49 48 25 96 -61 121 -62 18 -83 37 -64 59 19 23 76 19 94 -6 9 -13 21 -19
30 -16 23 9 20 23 -10 46 -34 27 -103 28 -132 4z"/>
<path d="M22870 8810 c0 -163 1 -170 20 -170 18 0 20 7 20 55 0 51 10 69 25
45 3 -5 24 -10 47 -10 31 0 46 6 68 30 48 52 46 154 -5 198 -31 27 -90 30
-117 5 -17 -15 -18 -15 -18 0 0 10 -8 17 -20 17 -19 0 -20 -7 -20 -170z m154
118 c26 -41 24 -120 -4 -148 -47 -47 -110 -4 -110 75 0 55 30 95 70 95 20 0
34 -8 44 -22z"/>
<path d="M23174 8969 c-32 -16 -54 -62 -54 -114 0 -83 37 -124 111 -125 81 0
131 68 115 156 -11 56 -54 94 -108 93 -24 0 -52 -5 -64 -10z m99 -33 c42 -32
40 -143 -3 -166 -57 -31 -110 11 -110 87 0 72 63 117 113 79z"/>
<path d="M23729 8952 c-40 -36 -51 -109 -25 -164 30 -63 119 -79 175 -32 34
29 38 42 16 50 -9 4 -23 -4 -36 -20 -35 -45 -107 -27 -124 31 -6 22 -4 22 87
25 l93 3 -4 30 c-4 40 -27 82 -50 95 -39 20 -98 12 -132 -18z"/>
<path d="M7335 8851 c-69 -17 -134 -70 -171 -141 -18 -33 -19 -67 -19 -565 0
-481 2 -534 17 -572 l18 -43 -80 0 -80 0 0 -70 0 -70 -36 0 -37 0 6 -77 c6
-96 17 -133 59 -203 39 -64 110 -121 182 -145 75 -26 235 -31 338 -11 97 20
224 77 288 131 61 50 123 127 160 197 28 52 35 58 63 58 44 1 145 26 163 40 7
7 14 19 14 26 0 15 -108 14 1704 14 535 0 873 4 896 10 55 15 115 63 147 117
l28 48 3 355 2 355 -137 80 -138 81 -3 197 -2 197 -819 0 c-646 0 -821 -3
-825 -12 -5 -10 -7 -10 -12 0 -4 9 -184 12 -852 11 -466 -1 -860 -4 -877 -8z
m521 -597 c60 -29 68 -57 72 -256 l4 -178 -36 0 -36 0 0 165 c0 163 0 166 -25
190 -31 32 -66 32 -102 1 l-28 -24 -3 -166 -3 -166 -35 0 -34 0 0 220 0 220
30 0 c26 0 30 -4 30 -27 l0 -26 23 21 c45 42 91 51 143 26z m366 -21 l28 -27
0 27 c0 23 4 27 31 27 l31 0 -4 -247 c-3 -227 -5 -251 -24 -288 -54 -105 -220
-112 -268 -10 -24 50 -21 65 14 65 20 0 33 -6 37 -17 13 -38 36 -53 77 -53 23
0 46 4 52 8 25 17 44 60 44 99 l0 43 -32 -20 c-81 -49 -173 0 -204 108 -30
102 -5 232 54 285 48 43 119 43 164 0z m554 21 c60 -29 68 -57 72 -256 l4
-178 -36 0 -36 0 0 165 c0 163 0 166 -25 190 -31 32 -66 32 -102 1 l-28 -24
-3 -166 -3 -166 -35 0 -34 0 0 220 0 220 30 0 c26 0 30 -4 30 -27 l0 -26 23
21 c45 42 91 51 143 26z m715 0 c26 -11 49 -30 64 -55 47 -73 51 -217 10 -302
-37 -77 -132 -111 -189 -66 l-26 20 0 -100 0 -101 -35 0 -35 0 0 305 0 305 30
0 c26 0 30 -4 30 -27 l0 -27 28 26 c44 42 64 45 123 22z m571 6 c43 -12 88
-61 88 -96 0 -13 -3 -24 -7 -24 -5 0 -18 -3 -30 -6 -17 -5 -23 -2 -23 10 0 28
-37 56 -75 56 -36 0 -75 -28 -75 -53 0 -20 30 -43 75 -57 77 -24 126 -53 140
-81 33 -62 6 -147 -56 -181 -52 -29 -139 -21 -179 17 -37 36 -59 93 -39 106
28 17 49 9 63 -25 18 -42 67 -63 112 -46 35 14 44 26 44 63 0 30 -13 38 -133
82 -57 20 -87 61 -87 116 0 48 37 101 80 116 44 15 56 15 102 3z m394 -15 c31
-20 52 -53 60 -93 6 -30 5 -32 -23 -32 -24 0 -33 7 -46 35 -28 58 -98 59 -141
2 -17 -24 -21 -43 -21 -110 0 -48 6 -96 14 -115 16 -39 61 -65 96 -56 29 7 65
48 65 75 0 24 16 32 47 25 21 -6 24 -11 18 -34 -27 -111 -141 -167 -225 -109
-56 37 -81 99 -81 200 -1 94 19 154 63 195 47 43 123 51 174 17z m-1988 -207
l2 -218 -35 0 -35 0 0 221 0 220 33 -3 32 -3 3 -217z m549 152 c21 -38 41 -69
45 -67 5 1 25 31 46 67 34 60 40 65 75 68 20 2 37 1 37 -2 0 -3 -27 -50 -61
-106 l-61 -100 45 -78 c25 -42 55 -94 67 -114 l22 -38 -41 0 -40 0 -42 81
c-28 53 -45 77 -52 70 -5 -5 -26 -40 -47 -78 -34 -64 -39 -68 -75 -71 -46 -4
-46 -6 31 125 31 52 53 101 50 109 -3 8 -28 53 -56 100 -27 46 -50 89 -50 94
0 6 15 10 34 10 33 0 37 -4 73 -70z m813 -150 l0 -40 -95 0 -95 0 0 40 0 40
95 0 95 0 0 -40z m-2505 -450 l0 -55 -62 -3 -63 -3 0 61 0 61 63 -3 62 -3 0
-55z m155 0 l0 -61 -62 3 -63 3 -3 44 c-5 66 -1 71 68 71 l60 0 0 -60z m526
-87 c6 -33 8 -34 44 -28 21 4 57 1 80 -5 40 -11 41 -12 27 -33 -25 -39 -77
-67 -124 -67 -41 0 -45 -2 -59 -37 -27 -64 -81 -139 -141 -198 -186 -181 -558
-231 -731 -98 l-37 28 71 6 c71 7 157 40 136 53 -6 4 -25 0 -42 -9 -18 -9 -62
-19 -99 -22 -62 -5 -70 -4 -89 18 -30 31 -59 113 -68 187 l-6 61 448 3 c408 3
452 5 482 21 37 20 36 17 17 53 -19 38 -19 95 1 142 l16 37 34 -39 c18 -21 37
-54 40 -73z"/>
<path d="M8107 8189 c-30 -18 -47 -73 -47 -152 0 -60 4 -80 23 -107 42 -63
100 -60 144 7 24 37 24 165 0 210 -27 50 -76 67 -120 42z"/>
<path d="M9409 8197 c-44 -22 -64 -74 -64 -162 0 -93 18 -135 64 -154 39 -17
83 6 102 51 22 51 18 186 -5 225 -24 40 -64 56 -97 40z"/>
<path d="M2469 8781 c-75 -24 -109 -76 -109 -165 0 -108 45 -166 135 -174 67
-5 103 8 133 51 26 40 28 53 6 61 -20 8 -17 10 -38 -31 -35 -70 -145 -63 -180
12 -31 65 -13 165 35 199 13 9 41 16 63 16 31 0 45 -7 72 -35 20 -22 38 -33
48 -29 14 5 14 9 1 35 -9 16 -25 35 -38 43 -28 19 -94 28 -128 17z"/>
<path d="M960 8611 c0 -164 1 -171 20 -171 18 0 20 7 20 69 l0 68 81 5 c70 4
84 8 106 31 36 35 38 106 5 139 -20 20 -34 23 -127 26 l-105 4 0 -171z m198
117 c7 -7 12 -27 12 -44 0 -47 -29 -64 -107 -64 l-63 0 0 60 0 60 73 0 c43 0
78 -5 85 -12z"/>
<path d="M3268 8759 c-11 -6 -18 -22 -18 -39 0 -20 -5 -30 -15 -30 -8 0 -15
-7 -15 -15 0 -8 7 -15 15 -15 12 0 15 -17 15 -91 0 -110 8 -129 56 -129 29 0
35 3 30 16 -3 9 -6 18 -6 20 0 2 -9 4 -20 4 -19 0 -20 7 -20 90 0 83 1 90 20
90 11 0 20 7 20 15 0 8 -9 15 -19 15 -16 0 -20 8 -23 39 -3 35 -5 38 -20 30z"/>
<path d="M1314 8679 c-32 -16 -54 -62 -54 -114 0 -83 37 -124 111 -125 81 0
131 68 115 156 -11 56 -54 94 -108 93 -24 0 -52 -5 -64 -10z m99 -33 c42 -32
40 -143 -3 -166 -57 -31 -110 11 -110 87 0 72 63 117 113 79z"/>
<path d="M1780 8663 c-37 -33 -49 -91 -30 -147 18 -55 45 -76 101 -76 40 0 51
4 73 31 31 37 33 59 6 59 -11 0 -20 -6 -20 -13 0 -21 -34 -47 -62 -47 -41 0
-63 34 -63 97 0 45 4 58 24 74 32 26 66 24 89 -6 11 -14 25 -25 30 -25 23 0
21 20 -4 49 -36 43 -99 44 -144 4z"/>
<path d="M1974 8673 c78 -197 89 -236 75 -262 -8 -14 -25 -27 -37 -29 -28 -4
-31 -42 -3 -42 33 0 51 11 66 40 15 30 115 292 115 303 0 4 -8 7 -18 7 -13 0
-26 -24 -53 -101 l-35 -101 -36 98 c-29 83 -39 100 -58 102 -19 3 -21 0 -16
-15z"/>
<path d="M2754 8679 c-32 -16 -54 -62 -54 -114 0 -83 37 -124 111 -125 81 0
131 68 115 156 -11 56 -54 94 -108 93 -24 0 -52 -5 -64 -10z m99 -33 c42 -32
40 -143 -3 -166 -57 -31 -110 11 -110 87 0 72 63 117 113 79z"/>
<path d="M2970 8565 c0 -116 1 -125 19 -125 17 0 19 9 23 91 3 81 6 93 27 110
28 23 54 24 75 3 12 -12 16 -37 16 -110 0 -87 1 -94 20 -94 19 0 20 7 20 105
0 92 -3 108 -20 125 -24 24 -86 27 -118 4 -20 -14 -22 -14 -22 0 0 9 -9 16
-20 16 -19 0 -20 -7 -20 -125z"/>
<path d="M3574 8679 c-32 -16 -54 -62 -54 -114 0 -83 37 -124 111 -125 81 0
131 68 115 156 -11 56 -54 94 -108 93 -24 0 -52 -5 -64 -10z m99 -33 c42 -32
40 -143 -3 -166 -57 -31 -110 11 -110 87 0 72 63 117 113 79z"/>
<path d="M20640 8260 l0 -170 105 0 c98 0 105 1 105 20 0 18 -7 20 -85 20
l-85 0 0 150 c0 143 -1 150 -20 150 -19 0 -20 -7 -20 -170z"/>
<path d="M23588 8409 c-11 -6 -18 -22 -18 -39 0 -20 -5 -30 -15 -30 -8 0 -15
-7 -15 -15 0 -8 7 -15 15 -15 12 0 15 -17 15 -91 0 -110 8 -129 56 -129 29 0
35 3 30 16 -3 9 -6 18 -6 20 0 2 -9 4 -20 4 -19 0 -20 7 -20 90 0 83 1 90 20
90 11 0 20 7 20 15 0 8 -9 15 -19 15 -16 0 -20 8 -23 39 -3 35 -5 38 -20 30z"/>
<path d="M17530 8354 c-127 -48 -123 -38 -39 -95 41 -27 77 -49 82 -49 4 0 7
13 7 28 0 16 3 32 7 35 4 4 7 30 7 57 1 28 1 50 1 50 0 -1 -29 -12 -65 -26z"/>
<path d="M20934 8329 c-32 -16 -54 -62 -54 -114 0 -83 37 -124 111 -125 81 0
131 68 115 156 -11 56 -54 94 -108 93 -24 0 -52 -5 -64 -10z m99 -33 c42 -32
40 -143 -3 -166 -57 -31 -110 11 -110 87 0 72 63 117 113 79z"/>
<path d="M21197 8329 c-44 -26 -61 -122 -32 -179 29 -57 87 -76 133 -44 21 15
22 14 22 -14 0 -38 -19 -60 -56 -68 -24 -5 -37 -1 -51 13 -30 30 -53 36 -53
14 0 -34 38 -56 97 -56 48 0 58 4 79 28 23 27 24 34 24 173 0 121 -2 144 -15
144 -8 0 -15 -7 -15 -16 0 -14 -2 -14 -22 0 -25 18 -84 21 -111 5z m93 -29
c41 -22 47 -122 9 -156 -48 -43 -109 -4 -109 71 0 72 48 113 100 85z"/>
<path d="M21442 8323 c-52 -46 -25 -103 57 -123 54 -13 77 -31 68 -55 -14 -34
-105 -30 -114 6 -3 11 -12 19 -21 17 -26 -5 -25 -26 2 -53 36 -36 116 -36 151
0 49 48 25 96 -61 121 -62 18 -83 37 -64 59 19 23 76 19 94 -6 9 -13 21 -19
30 -16 23 9 20 23 -10 46 -34 27 -103 28 -132 4z"/>
<path d="M21825 8315 c-14 -13 -25 -29 -25 -35 0 -17 29 -11 50 10 36 36 117
17 109 -25 -3 -15 -19 -22 -69 -32 -70 -14 -100 -38 -100 -79 0 -38 34 -64 83
-64 24 0 52 7 63 15 25 19 34 19 34 0 0 -9 9 -15 21 -15 17 0 20 4 15 23 -3
12 -6 59 -6 105 0 105 -14 122 -95 122 -46 0 -60 -4 -80 -25z"/>
<path d="M22107 8329 c-44 -26 -61 -122 -32 -179 29 -57 87 -76 133 -44 21 15
22 14 22 -14 0 -38 -19 -60 -56 -68 -24 -5 -37 -1 -51 13 -30 30 -53 36 -53
14 0 -34 38 -56 97 -56 48 0 58 4 79 28 23 27 24 34 24 173 0 121 -2 144 -15
144 -8 0 -15 -7 -15 -16 0 -14 -2 -14 -22 0 -25 18 -84 21 -111 5z m93 -29
c41 -22 47 -122 9 -156 -48 -43 -109 -4 -109 71 0 72 48 113 100 85z"/>
<path d="M22367 8329 c-44 -26 -61 -122 -32 -179 29 -57 87 -76 133 -44 21 15
22 14 22 -14 0 -38 -19 -60 -56 -68 -24 -5 -37 -1 -51 13 -30 30 -53 36 -53
14 0 -34 38 -56 97 -56 48 0 58 4 79 28 23 27 24 34 24 173 0 121 -2 144 -15
144 -8 0 -15 -7 -15 -16 0 -14 -2 -14 -22 0 -25 18 -84 21 -111 5z m93 -29
c41 -22 47 -122 9 -156 -48 -43 -109 -4 -109 71 0 72 48 113 100 85z"/>
<path d="M22789 8312 c-40 -36 -51 -109 -25 -164 30 -63 119 -79 175 -32 34
29 38 42 16 50 -9 4 -23 -4 -36 -20 -35 -45 -107 -27 -124 31 -6 22 -4 22 87
25 l93 3 -4 30 c-4 40 -27 82 -50 95 -39 20 -98 12 -132 -18z"/>
<path d="M23067 8329 c-44 -26 -61 -122 -32 -179 29 -57 87 -76 133 -44 21 15
22 14 22 -14 0 -38 -19 -60 -56 -68 -24 -5 -37 -1 -51 13 -30 30 -53 36 -53
14 0 -34 38 -56 97 -56 48 0 58 4 79 28 23 27 24 34 24 173 0 121 -2 144 -15
144 -8 0 -15 -7 -15 -16 0 -14 -2 -14 -22 0 -25 18 -84 21 -111 5z m93 -29
c41 -22 47 -122 9 -156 -48 -43 -109 -4 -109 71 0 72 48 113 100 85z"/>
<path d="M23315 8315 c-14 -13 -25 -29 -25 -35 0 -17 29 -11 50 10 36 36 117
17 109 -25 -3 -15 -19 -22 -69 -32 -70 -14 -100 -38 -100 -79 0 -38 34 -64 83
-64 24 0 52 7 63 15 25 19 34 19 34 0 0 -9 9 -15 21 -15 17 0 20 4 15 23 -3
12 -6 59 -6 105 0 105 -14 122 -95 122 -46 0 -60 -4 -80 -25z"/>
<path d="M23734 8329 c-32 -16 -54 -62 -54 -114 0 -83 37 -124 111 -125 81 0
131 68 115 156 -11 56 -54 94 -108 93 -24 0 -52 -5 -64 -10z m99 -33 c42 -32
40 -143 -3 -166 -57 -31 -110 11 -110 87 0 72 63 117 113 79z"/>
<path d="M6580 8125 c0 -47 2 -85 5 -85 18 0 164 74 158 80 -4 4 -43 26 -85
49 l-78 42 0 -86z"/>
<path d="M1573 8135 c-37 -16 -53 -42 -53 -84 0 -42 28 -67 97 -86 83 -22 108
-37 111 -66 4 -36 -27 -61 -80 -61 -54 -1 -86 15 -94 47 -4 18 -13 25 -30 25
-18 0 -22 -4 -18 -17 22 -70 56 -93 134 -93 85 0 130 34 130 100 0 43 -36 76
-106 95 -93 25 -104 32 -104 59 0 32 35 56 81 56 29 0 43 -7 62 -30 42 -50 77
-34 41 19 -33 46 -110 63 -171 36z"/>
<path d="M932 8123 c2 -14 15 -19 61 -21 l57 -3 0 -149 c0 -143 1 -150 20
-150 19 0 20 7 20 150 l0 150 55 0 c48 0 55 2 55 20 0 19 -7 20 -136 20 -124
0 -135 -2 -132 -17z"/>
<path d="M1250 7970 l0 -170 105 0 c98 0 105 1 105 20 0 18 -7 20 -85 20 l-85
0 0 150 c0 143 -1 150 -20 150 -19 0 -20 -7 -20 -170z"/>
<path d="M1988 8119 c-11 -6 -18 -22 -18 -39 0 -20 -5 -30 -15 -30 -8 0 -15
-7 -15 -15 0 -8 7 -15 15 -15 12 0 15 -17 15 -91 0 -110 8 -129 56 -129 29 0
35 3 30 16 -3 9 -6 18 -6 20 0 2 -9 4 -20 4 -19 0 -20 7 -20 90 0 83 1 90 20
90 11 0 20 7 20 15 0 8 -9 15 -19 15 -16 0 -20 8 -23 39 -3 35 -5 38 -20 30z"/>
<path d="M3588 8119 c-11 -6 -18 -22 -18 -39 0 -20 -5 -30 -15 -30 -8 0 -15
-7 -15 -15 0 -8 7 -15 15 -15 12 0 15 -17 15 -91 0 -110 8 -129 56 -129 29 0
35 3 30 16 -3 9 -6 18 -6 20 0 2 -9 4 -20 4 -19 0 -20 7 -20 90 0 83 1 90 20
90 11 0 20 7 20 15 0 8 -9 15 -19 15 -16 0 -20 8 -23 39 -3 35 -5 38 -20 30z"/>
<path d="M2129 8022 c-40 -36 -51 -109 -25 -164 30 -63 119 -79 175 -32 34 29
38 42 16 50 -9 4 -23 -4 -36 -20 -35 -45 -107 -27 -124 31 -6 22 -4 22 87 25
l93 3 -4 30 c-4 40 -27 82 -50 95 -39 20 -98 12 -132 -18z"/>
<path d="M2530 7925 c0 -116 1 -125 19 -125 17 0 19 9 23 89 3 97 20 131 64
131 34 0 44 -28 44 -129 0 -84 1 -91 20 -91 19 0 20 7 20 90 0 77 3 93 20 110
25 25 52 26 73 2 13 -15 17 -39 17 -110 0 -85 1 -92 20 -92 19 0 20 7 20 89 0
90 -11 139 -33 153 -22 14 -74 8 -97 -10 -23 -18 -24 -18 -42 0 -22 22 -76 24
-106 2 -20 -14 -22 -14 -22 0 0 9 -9 16 -20 16 -19 0 -20 -7 -20 -125z"/>
<path d="M3030 7925 c0 -116 1 -125 19 -125 17 0 19 9 23 91 3 81 6 93 27 110
28 23 54 24 75 3 12 -12 16 -37 16 -110 0 -87 1 -94 20 -94 19 0 20 7 20 105
0 92 -3 108 -20 125 -24 24 -86 27 -118 4 -20 -14 -22 -14 -22 0 0 9 -9 16
-20 16 -19 0 -20 -7 -20 -125z"/>
<path d="M3325 8025 c-14 -13 -25 -29 -25 -35 0 -17 29 -11 50 10 36 36 117
17 109 -25 -3 -15 -19 -22 -69 -32 -70 -14 -100 -38 -100 -79 0 -38 34 -64 83
-64 24 0 52 7 63 15 25 19 34 19 34 0 0 -9 9 -15 21 -15 17 0 20 4 15 23 -3
12 -6 59 -6 105 0 105 -14 122 -95 122 -46 0 -60 -4 -80 -25z"/>
<path d="M3844 8039 c-32 -16 -54 -62 -54 -114 0 -83 37 -124 111 -125 81 0
131 68 115 156 -11 56 -54 94 -108 93 -24 0 -52 -5 -64 -10z m99 -33 c42 -32
40 -143 -3 -166 -57 -31 -110 11 -110 87 0 72 63 117 113 79z"/>
<path d="M4070 7925 c0 -116 1 -125 19 -125 17 0 19 9 23 91 3 81 6 93 27 110
28 23 54 24 75 3 12 -12 16 -37 16 -110 0 -87 1 -94 20 -94 19 0 20 7 20 105
0 92 -3 108 -20 125 -24 24 -86 27 -118 4 -20 -14 -22 -14 -22 0 0 9 -9 16
-20 16 -19 0 -20 -7 -20 -125z"/>
<path d="M17120 7770 l0 -69 -152 -3 -153 -3 -3 -72 -3 -73 -74 0 -75 0 0 -70
0 -70 -34 0 c-41 0 -44 -10 -35 -90 20 -170 106 -288 243 -335 75 -26 235 -31
338 -11 116 23 246 88 322 162 60 59 132 160 142 201 5 18 13 23 38 23 46 0
117 39 143 79 13 19 23 37 23 41 0 16 -71 40 -118 40 -45 0 -50 3 -56 25 -7
28 -59 90 -88 106 -16 9 -21 4 -38 -33 -21 -47 -26 -137 -10 -169 9 -16 7 -21
-15 -29 -59 -22 -65 -17 -65 60 l0 69 -72 3 -73 3 -3 136 -3 137 -31 6 c-17 3
-57 6 -89 6 l-59 0 0 -70z m-152 -157 l-3 -58 -62 -3 -63 -3 0 61 0 60 65 0
66 0 -3 -57z m152 -3 l0 -61 -62 3 -63 3 -3 58 -3 57 66 0 65 0 0 -60z m526
-87 c6 -33 8 -34 44 -28 21 4 57 1 80 -5 40 -11 41 -12 27 -33 -25 -39 -77
-67 -124 -67 -41 0 -45 -2 -59 -37 -27 -64 -81 -139 -141 -198 -186 -181 -558
-231 -731 -98 l-37 28 71 6 c71 7 157 40 136 53 -6 4 -25 0 -42 -9 -18 -9 -62
-19 -99 -22 -62 -5 -70 -4 -89 18 -30 31 -59 113 -68 187 l-6 61 448 3 c408 3
452 5 482 21 37 20 36 17 17 53 -19 38 -19 95 1 142 l16 37 34 -39 c18 -21 37
-54 40 -73z m-218 -55 l3 -58 -66 0 -65 0 0 60 0 61 63 -3 62 -3 3 -57z"/>
<path d="M21843 7790 c-16 -7 -24 -21 -29 -50 -4 -24 -12 -40 -20 -40 -8 0
-14 -7 -14 -15 0 -8 7 -15 15 -15 12 0 15 -19 15 -110 0 -103 1 -110 20 -110
19 0 20 7 20 110 l0 110 25 0 c16 0 25 6 25 15 0 9 -9 15 -25 15 -44 0 -30 55
15 61 14 2 25 11 25 19 0 18 -40 23 -72 10z"/>
<path d="M20640 7620 l0 -170 105 0 c98 0 105 1 105 20 0 18 -7 20 -85 20
l-85 0 0 150 c0 143 -1 150 -20 150 -19 0 -20 -7 -20 -170z"/>
<path d="M23058 7769 c-11 -6 -18 -22 -18 -39 0 -20 -5 -30 -15 -30 -8 0 -15
-7 -15 -15 0 -8 7 -15 15 -15 12 0 15 -17 15 -91 0 -110 8 -129 56 -129 29 0
35 3 30 16 -3 9 -6 18 -6 20 0 2 -9 4 -20 4 -19 0 -20 7 -20 90 0 83 1 90 20
90 11 0 20 7 20 15 0 8 -9 15 -19 15 -16 0 -20 8 -23 39 -3 35 -5 38 -20 30z"/>
<path d="M23188 7769 c-11 -6 -18 -22 -18 -39 0 -20 -5 -30 -15 -30 -8 0 -15
-7 -15 -15 0 -8 7 -15 15 -15 12 0 15 -17 15 -91 0 -110 8 -129 56 -129 29 0
35 3 30 16 -3 9 -6 18 -6 20 0 2 -9 4 -20 4 -19 0 -20 7 -20 90 0 83 1 90 20
90 11 0 20 7 20 15 0 8 -9 15 -19 15 -16 0 -20 8 -23 39 -3 35 -5 38 -20 30z"/>
<path d="M20934 7689 c-32 -16 -54 -62 -54 -114 0 -83 37 -124 111 -125 81 0
131 68 115 156 -11 56 -54 94 -108 93 -24 0 -52 -5 -64 -10z m99 -33 c42 -32
40 -143 -3 -166 -57 -31 -110 11 -110 87 0 72 63 117 113 79z"/>
<path d="M21197 7689 c-44 -26 -61 -122 -32 -179 29 -57 87 -76 133 -44 21 15
22 14 22 -14 0 -38 -19 -60 -56 -68 -24 -5 -37 -1 -51 13 -30 30 -53 36 -53
14 0 -34 38 -56 97 -56 48 0 58 4 79 28 23 27 24 34 24 173 0 121 -2 144 -15
144 -8 0 -15 -7 -15 -16 0 -14 -2 -14 -22 0 -25 18 -84 21 -111 5z m93 -29
c41 -22 47 -122 9 -156 -48 -43 -109 -4 -109 71 0 72 48 113 100 85z"/>
<path d="M21442 7683 c-52 -46 -25 -103 57 -123 54 -13 77 -31 68 -55 -14 -34
-105 -30 -114 6 -3 11 -12 19 -21 17 -26 -5 -25 -26 2 -53 36 -36 116 -36 151
0 49 48 25 96 -61 121 -62 18 -83 37 -64 59 19 23 76 19 94 -6 9 -13 21 -19
30 -16 23 9 20 23 -10 46 -34 27 -103 28 -132 4z"/>
<path d="M21974 7689 c-32 -16 -54 -62 -54 -114 0 -83 37 -124 111 -125 81 0
131 68 115 156 -11 56 -54 94 -108 93 -24 0 -52 -5 -64 -10z m99 -33 c42 -32
40 -143 -3 -166 -57 -31 -110 11 -110 87 0 72 63 117 113 79z"/>
<path d="M22360 7575 c0 -116 1 -125 19 -125 17 0 19 9 23 89 3 97 20 131 64
131 34 0 44 -28 44 -129 0 -84 1 -91 20 -91 19 0 20 7 20 90 0 77 3 93 20 110
25 25 52 26 73 2 13 -15 17 -39 17 -110 0 -85 1 -92 20 -92 19 0 20 7 20 89 0
90 -11 139 -33 153 -22 14 -74 8 -97 -10 -23 -18 -24 -18 -42 0 -22 22 -76 24
-106 2 -20 -14 -22 -14 -22 0 0 9 -9 16 -20 16 -19 0 -20 -7 -20 -125z"/>
<path d="M22785 7675 c-14 -13 -25 -29 -25 -35 0 -17 29 -11 50 10 36 36 117
17 109 -25 -3 -15 -19 -22 -69 -32 -70 -14 -100 -38 -100 -79 0 -38 34 -64 83
-64 24 0 52 7 63 15 25 19 34 19 34 0 0 -9 9 -15 21 -15 17 0 20 4 15 23 -3
12 -6 59 -6 105 0 105 -14 122 -95 122 -46 0 -60 -4 -80 -25z"/>
<path d="M23329 7672 c-40 -36 -51 -109 -25 -164 30 -63 119 -79 175 -32 34
29 38 42 16 50 -9 4 -23 -4 -36 -20 -35 -45 -107 -27 -124 31 -6 22 -4 22 87
25 l93 3 -4 30 c-4 40 -27 82 -50 95 -39 20 -98 12 -132 -18z"/>
<path d="M1034 7490 c-109 -55 -117 -237 -13 -308 28 -20 44 -23 94 -20 72 4
106 26 135 84 27 54 26 119 -2 174 -40 78 -136 110 -214 70z m152 -54 c34 -34
41 -58 36 -129 -4 -47 -31 -87 -69 -104 -78 -32 -152 17 -161 105 -9 100 38
162 122 162 30 0 45 -7 72 -34z"/>
<path d="M3840 7503 c-49 -18 -66 -76 -34 -121 14 -21 14 -24 -16 -49 -18 -14
-36 -37 -41 -51 -12 -32 5 -87 34 -107 31 -22 109 -19 138 4 23 18 24 18 51
-2 22 -17 30 -18 43 -7 13 11 12 15 -11 37 -19 18 -24 30 -19 46 12 40 10 61
-7 65 -10 2 -19 -6 -23 -19 -8 -23 -8 -23 -36 9 -33 37 -36 50 -14 59 9 3 23
19 31 35 31 61 -30 125 -96 101z"/>
<path d="M4319 7501 c-75 -24 -109 -76 -109 -165 0 -108 45 -166 135 -174 67
-5 103 8 133 51 26 40 28 53 6 61 -20 8 -17 10 -38 -31 -35 -70 -145 -63 -180
12 -31 65 -13 165 35 199 13 9 41 16 63 16 31 0 45 -7 72 -35 20 -22 38 -33
48 -29 14 5 14 9 1 35 -9 16 -25 35 -38 43 -28 19 -94 28 -128 17z"/>
<path d="M5060 7330 c0 -160 1 -170 19 -170 17 0 19 9 23 91 3 81 6 93 27 110
28 23 54 24 75 3 12 -12 16 -37 16 -110 0 -87 1 -94 20 -94 19 0 20 7 20 105
0 92 -3 108 -20 125 -24 24 -86 27 -118 4 l-22 -15 0 60 c0 54 -2 61 -20 61
-19 0 -20 -7 -20 -170z"/>
<path d="M1618 7479 c-11 -6 -18 -22 -18 -39 0 -20 -5 -30 -15 -30 -8 0 -15
-7 -15 -15 0 -8 7 -15 15 -15 12 0 15 -17 15 -91 0 -110 8 -129 56 -129 29 0
35 3 30 16 -3 9 -6 18 -6 20 0 2 -9 4 -20 4 -19 0 -20 7 -20 90 0 83 1 90 20
90 11 0 20 7 20 15 0 8 -9 15 -19 15 -16 0 -20 8 -23 39 -3 35 -5 38 -20 30z"/>
<path d="M2868 7479 c-11 -6 -18 -22 -18 -39 0 -20 -5 -30 -15 -30 -8 0 -15
-7 -15 -15 0 -8 7 -15 15 -15 12 0 15 -17 15 -91 0 -110 8 -129 56 -129 29 0
35 3 30 16 -3 9 -6 18 -6 20 0 2 -9 4 -20 4 -19 0 -20 7 -20 90 0 83 1 90 20
90 11 0 20 7 20 15 0 8 -9 15 -19 15 -16 0 -20 8 -23 39 -3 35 -5 38 -20 30z"/>
<path d="M1330 7240 c0 -163 1 -170 20 -170 18 0 20 7 20 55 0 51 10 69 25 45
3 -5 24 -10 47 -10 31 0 46 6 68 30 48 52 46 154 -5 198 -31 27 -90 30 -117 5
-17 -15 -18 -15 -18 0 0 10 -8 17 -20 17 -19 0 -20 -7 -20 -170z m154 118 c26
-41 24 -120 -4 -148 -47 -47 -110 -4 -110 75 0 55 30 95 70 95 20 0 34 -8 44
-22z"/>
<path d="M1830 7285 c0 -116 1 -125 19 -125 17 0 19 9 23 89 3 97 20 131 64
131 34 0 44 -28 44 -129 0 -84 1 -91 20 -91 19 0 20 7 20 90 0 77 3 93 20 110
25 25 52 26 73 2 13 -15 17 -39 17 -110 0 -85 1 -92 20 -92 19 0 20 7 20 89 0
90 -11 139 -33 153 -22 14 -74 8 -97 -10 -23 -18 -24 -18 -42 0 -22 22 -76 24
-106 2 -20 -14 -22 -14 -22 0 0 9 -9 16 -20 16 -19 0 -20 -7 -20 -125z"/>
<path d="M2330 7395 c0 -12 14 -15 70 -15 39 0 70 -3 70 -7 0 -5 -34 -46 -75
-93 -103 -117 -102 -120 36 -120 100 0 110 2 107 18 -3 15 -14 17 -81 15 -42
-1 -77 1 -77 5 0 4 34 46 75 94 41 48 75 94 75 102 0 13 -16 16 -100 16 -82 0
-100 -3 -100 -15z"/>
<path d="M2605 7385 c-14 -13 -25 -29 -25 -35 0 -17 29 -11 50 10 36 36 117
17 109 -25 -3 -15 -19 -22 -69 -32 -70 -14 -100 -38 -100 -79 0 -38 34 -64 83
-64 24 0 52 7 63 15 25 19 34 19 34 0 0 -9 9 -15 21 -15 17 0 20 4 15 23 -3
12 -6 59 -6 105 0 105 -14 122 -95 122 -46 0 -60 -4 -80 -25z"/>
<path d="M3124 7399 c-32 -16 -54 -62 -54 -114 0 -83 37 -124 111 -125 81 0
131 68 115 156 -11 56 -54 94 -108 93 -24 0 -52 -5 -64 -10z m99 -33 c42 -32
40 -143 -3 -166 -57 -31 -110 11 -110 87 0 72 63 117 113 79z"/>
<path d="M3350 7285 c0 -116 1 -125 19 -125 17 0 19 9 23 91 3 81 6 93 27 110
28 23 54 24 75 3 12 -12 16 -37 16 -110 0 -87 1 -94 20 -94 19 0 20 7 20 105
0 92 -3 108 -20 125 -24 24 -86 27 -118 4 -20 -14 -22 -14 -22 0 0 9 -9 16
-20 16 -19 0 -20 -7 -20 -125z"/>
<path d="M4575 7385 c-14 -13 -25 -29 -25 -35 0 -17 29 -11 50 10 36 36 117
17 109 -25 -3 -15 -19 -22 -69 -32 -70 -14 -100 -38 -100 -79 0 -38 34 -64 83
-64 24 0 52 7 63 15 25 19 34 19 34 0 0 -9 9 -15 21 -15 17 0 20 4 15 23 -3
12 -6 59 -6 105 0 105 -14 122 -95 122 -46 0 -60 -4 -80 -25z"/>
<path d="M4850 7383 c-37 -33 -49 -91 -30 -147 18 -55 45 -76 101 -76 40 0 51
4 73 31 31 37 33 59 6 59 -11 0 -20 -6 -20 -13 0 -21 -34 -47 -62 -47 -41 0
-63 34 -63 97 0 45 4 58 24 74 32 26 66 24 89 -6 11 -14 25 -25 30 -25 23 0
21 20 -4 49 -36 43 -99 44 -144 4z"/>
<path d="M5349 7382 c-40 -36 -51 -109 -25 -164 30 -63 119 -79 175 -32 34 29
38 42 16 50 -9 4 -23 -4 -36 -20 -35 -45 -107 -27 -124 31 -6 22 -4 22 87 25
l93 3 -4 30 c-4 40 -27 82 -50 95 -39 20 -98 12 -132 -18z"/>
<path d="M22913 7150 c-16 -7 -24 -21 -29 -50 -4 -24 -12 -40 -20 -40 -8 0
-14 -7 -14 -15 0 -8 7 -15 15 -15 12 0 15 -19 15 -110 0 -103 1 -110 20 -110
19 0 20 7 20 110 l0 110 25 0 c16 0 25 6 25 15 0 9 -9 15 -25 15 -44 0 -30 55
15 61 14 2 25 11 25 19 0 18 -40 23 -72 10z"/>
<path d="M20640 6980 l0 -170 105 0 c98 0 105 1 105 20 0 18 -7 20 -85 20
l-85 0 0 150 c0 143 -1 150 -20 150 -19 0 -20 -7 -20 -170z"/>
<path d="M21828 7129 c-11 -6 -18 -22 -18 -39 0 -20 -5 -30 -15 -30 -8 0 -15
-7 -15 -15 0 -8 7 -15 15 -15 12 0 15 -17 15 -91 0 -110 8 -129 56 -129 29 0
35 3 30 16 -3 9 -6 18 -6 20 0 2 -9 4 -20 4 -19 0 -20 7 -20 90 0 83 1 90 20
90 11 0 20 7 20 15 0 8 -9 15 -19 15 -16 0 -20 8 -23 39 -3 35 -5 38 -20 30z"/>
<path d="M20934 7049 c-32 -16 -54 -62 -54 -114 0 -83 37 -124 111 -125 81 0
131 68 115 156 -11 56 -54 94 -108 93 -24 0 -52 -5 -64 -10z m99 -33 c42 -32
40 -143 -3 -166 -57 -31 -110 11 -110 87 0 72 63 117 113 79z"/>
<path d="M21197 7049 c-44 -26 -61 -122 -32 -179 29 -57 87 -76 133 -44 21 15
22 14 22 -14 0 -38 -19 -60 -56 -68 -24 -5 -37 -1 -51 13 -30 30 -53 36 -53
14 0 -34 38 -56 97 -56 48 0 58 4 79 28 23 27 24 34 24 173 0 121 -2 144 -15
144 -8 0 -15 -7 -15 -16 0 -14 -2 -14 -22 0 -25 18 -84 21 -111 5z m93 -29
c41 -22 47 -122 9 -156 -48 -43 -109 -4 -109 71 0 72 48 113 100 85z"/>
<path d="M21442 7043 c-52 -46 -25 -103 57 -123 54 -13 77 -31 68 -55 -14 -34
-105 -30 -114 6 -3 11 -12 19 -21 17 -26 -5 -25 -26 2 -53 36 -36 116 -36 151
0 49 48 25 96 -61 121 -62 18 -83 37 -64 59 19 23 76 19 94 -6 9 -13 21 -19
30 -16 23 9 20 23 -10 46 -34 27 -103 28 -132 4z"/>
<path d="M22125 7035 c-14 -13 -25 -29 -25 -35 0 -17 29 -11 50 10 36 36 117
17 109 -25 -3 -15 -19 -22 -69 -32 -70 -14 -100 -38 -100 -79 0 -38 34 -64 83
-64 24 0 52 7 63 15 25 19 34 19 34 0 0 -9 9 -15 21 -15 17 0 20 4 15 23 -3
12 -6 59 -6 105 0 105 -14 122 -95 122 -46 0 -60 -4 -80 -25z"/>
<path d="M22360 6935 c0 -116 1 -125 19 -125 17 0 19 9 23 91 3 81 6 93 27
110 28 23 54 24 75 3 12 -12 16 -37 16 -110 0 -87 1 -94 20 -94 19 0 20 7 20
105 0 92 -3 108 -20 125 -24 24 -86 27 -118 4 -20 -14 -22 -14 -22 0 0 9 -9
16 -20 16 -19 0 -20 -7 -20 -125z"/>
<path d="M22652 7043 c-52 -46 -25 -103 57 -123 54 -13 77 -31 68 -55 -14 -34
-105 -30 -114 6 -3 11 -12 19 -21 17 -26 -5 -25 -26 2 -53 36 -36 116 -36 151
0 49 48 25 96 -61 121 -62 18 -83 37 -64 59 19 23 76 19 94 -6 9 -13 21 -19
30 -16 23 9 20 23 -10 46 -34 27 -103 28 -132 4z"/>
<path d="M23044 7049 c-32 -16 -54 -62 -54 -114 0 -83 37 -124 111 -125 81 0
131 68 115 156 -11 56 -54 94 -108 93 -24 0 -52 -5 -64 -10z m99 -33 c42 -32
40 -143 -3 -166 -57 -31 -110 11 -110 87 0 72 63 117 113 79z"/>
<path d="M23430 6935 c0 -116 1 -125 19 -125 17 0 19 9 23 89 3 97 20 131 64
131 34 0 44 -28 44 -129 0 -84 1 -91 20 -91 19 0 20 7 20 90 0 77 3 93 20 110
25 25 52 26 73 2 13 -15 17 -39 17 -110 0 -85 1 -92 20 -92 19 0 20 7 20 89 0
90 -11 139 -33 153 -22 14 -74 8 -97 -10 -23 -18 -24 -18 -42 0 -22 22 -76 24
-106 2 -20 -14 -22 -14 -22 0 0 9 -9 16 -20 16 -19 0 -20 -7 -20 -125z"/>
<path d="M23859 7032 c-40 -36 -51 -109 -25 -164 30 -63 119 -79 175 -32 34
29 38 42 16 50 -9 4 -23 -4 -36 -20 -35 -45 -107 -27 -124 31 -6 22 -4 22 87
25 l93 3 -4 30 c-4 40 -27 82 -50 95 -39 20 -98 12 -132 -18z"/>
<path d="M1693 6860 c-16 -7 -24 -21 -29 -50 -4 -24 -12 -40 -20 -40 -8 0 -14
-7 -14 -15 0 -8 7 -15 15 -15 12 0 15 -19 15 -110 0 -103 1 -110 20 -110 19 0
20 7 20 110 l0 110 45 0 45 0 0 -110 c0 -103 1 -110 20 -110 19 0 20 7 20 110
l0 110 25 0 c16 0 25 6 25 15 0 9 -9 15 -25 15 -44 0 -30 55 15 61 30 5 34 33
4 37 -11 2 -32 -2 -47 -7 -21 -8 -28 -19 -33 -51 -7 -41 -12 -44 -64 -40 -32
3 -34 4 -26 34 4 18 14 26 34 28 35 4 37 32 2 35 -14 1 -35 -2 -47 -7z"/>
<path d="M932 6843 c2 -14 15 -19 61 -21 l57 -3 0 -149 c0 -143 1 -150 20
-150 19 0 20 7 20 150 l0 150 55 0 c48 0 55 2 55 20 0 19 -7 20 -136 20 -124
0 -135 -2 -132 -17z"/>
<path d="M2372 6847 c1 -7 30 -84 63 -171 56 -145 62 -156 84 -154 21 3 31 22
82 153 79 199 75 187 48 183 -19 -3 -30 -24 -73 -145 -28 -79 -53 -143 -56
-143 -3 0 -28 64 -56 143 -43 121 -54 142 -73 145 -16 3 -22 -1 -19 -11z"/>
<path d="M3150 6690 c0 -163 1 -170 20 -170 12 0 20 7 20 17 0 15 1 15 18 0
21 -19 73 -22 103 -7 23 13 46 55 49 90 6 66 -1 92 -30 122 -26 25 -36 29 -68
26 -20 -3 -45 -8 -54 -12 -16 -7 -18 -2 -18 48 0 49 -2 56 -20 56 -19 0 -20
-7 -20 -170z m150 30 c19 -19 25 -46 20 -100 -3 -37 -18 -59 -45 -66 -53 -13
-85 22 -85 95 0 75 65 116 110 71z"/>
<path d="M3768 6839 c-11 -6 -18 -22 -18 -39 0 -20 -5 -30 -15 -30 -8 0 -15
-7 -15 -15 0 -8 7 -15 15 -15 12 0 15 -17 15 -91 0 -110 8 -129 56 -129 29 0
35 3 30 16 -3 9 -6 18 -6 20 0 2 -9 4 -20 4 -19 0 -20 7 -20 90 0 83 1 90 20
90 11 0 20 7 20 15 0 8 -9 15 -19 15 -16 0 -20 8 -23 39 -3 35 -5 38 -20 30z"/>
<path d="M10080 6796 c0 -2 12 -35 26 -72 14 -38 35 -93 46 -121 31 -83 48
-73 96 50 57 148 57 147 34 147 -16 0 -27 -19 -53 -95 -19 -52 -37 -95 -40
-95 -3 0 -12 19 -19 43 -31 105 -51 147 -71 147 -10 0 -19 -2 -19 -4z"/>
<path d="M10365 6775 c-14 -13 -25 -29 -25 -35 0 -17 29 -11 50 10 36 36 117
17 109 -25 -3 -15 -19 -22 -69 -32 -70 -14 -100 -38 -100 -79 0 -38 34 -64 83
-64 24 0 52 7 63 15 25 19 34 19 34 0 0 -9 9 -15 21 -15 17 0 20 4 15 23 -3
12 -6 59 -6 105 0 105 -14 122 -95 122 -46 0 -60 -4 -80 -25z"/>
<path d="M11054 6789 c-32 -16 -54 -62 -54 -114 0 -83 37 -124 111 -125 81 0
131 68 115 156 -11 56 -54 94 -108 93 -24 0 -52 -5 -64 -10z m99 -33 c42 -32
40 -143 -3 -166 -57 -31 -110 11 -110 87 0 72 63 117 113 79z"/>
<path d="M11317 6789 c-44 -26 -61 -122 -32 -179 29 -57 87 -76 133 -44 21 15
22 14 22 -14 0 -38 -19 -60 -56 -68 -24 -5 -37 -1 -51 13 -30 30 -53 36 -53
14 0 -34 38 -56 97 -56 48 0 58 4 79 28 23 27 24 34 24 173 0 121 -2 144 -15
144 -8 0 -15 -7 -15 -16 0 -14 -2 -14 -22 0 -25 18 -84 21 -111 5z m93 -29
c41 -22 47 -122 9 -156 -48 -43 -109 -4 -109 71 0 72 48 113 100 85z"/>
<path d="M11680 6675 c0 -116 1 -125 19 -125 17 0 19 9 23 91 3 81 6 93 27
110 28 23 54 24 75 3 12 -12 16 -37 16 -110 0 -87 1 -94 20 -94 19 0 20 7 20
105 0 92 -3 108 -20 125 -24 24 -86 27 -118 4 -20 -14 -22 -14 -22 0 0 9 -9
16 -20 16 -19 0 -20 -7 -20 -125z"/>
<path d="M11987 6789 c-44 -26 -61 -122 -32 -179 29 -57 87 -76 133 -44 21 15
22 14 22 -14 0 -38 -19 -60 -56 -68 -24 -5 -37 -1 -51 13 -30 30 -53 36 -53
14 0 -34 38 -56 97 -56 48 0 58 4 79 28 23 27 24 34 24 173 0 121 -2 144 -15
144 -8 0 -15 -7 -15 -16 0 -14 -2 -14 -22 0 -25 18 -84 21 -111 5z m93 -29
c41 -22 47 -122 9 -156 -48 -43 -109 -4 -109 71 0 72 48 113 100 85z"/>
<path d="M12320 6675 c0 -116 1 -125 19 -125 17 0 19 9 23 91 3 81 6 93 27
110 28 23 54 24 75 3 12 -12 16 -37 16 -110 0 -87 1 -94 20 -94 19 0 20 7 20
105 0 92 -3 108 -20 125 -24 24 -86 27 -118 4 -20 -14 -22 -14 -22 0 0 9 -9
16 -20 16 -19 0 -20 -7 -20 -125z"/>
<path d="M12570 6795 c0 -3 16 -29 35 -58 19 -28 35 -55 35 -60 0 -5 -11 -23
-24 -40 -13 -18 -31 -44 -41 -59 -17 -28 -17 -28 6 -28 17 0 32 12 52 45 16
25 33 45 37 45 4 0 21 -20 37 -45 20 -33 35 -45 52 -45 23 0 23 0 6 28 -10 15
-28 41 -41 59 -13 17 -24 37 -24 43 0 7 16 34 35 60 41 55 42 60 15 60 -12 0
-30 -16 -46 -40 -15 -22 -30 -40 -34 -40 -4 0 -19 18 -34 40 -16 24 -34 40
-46 40 -11 0 -20 -2 -20 -5z"/>
<path d="M12985 6775 c-14 -13 -25 -29 -25 -35 0 -17 29 -11 50 10 36 36 117
17 109 -25 -3 -15 -19 -22 -69 -32 -70 -14 -100 -38 -100 -79 0 -38 34 -64 83
-64 24 0 52 7 63 15 25 19 34 19 34 0 0 -9 9 -15 21 -15 17 0 20 4 15 23 -3
12 -6 59 -6 105 0 105 -14 122 -95 122 -46 0 -60 -4 -80 -25z"/>
<path d="M13250 6773 c-37 -33 -49 -91 -30 -147 18 -55 45 -76 101 -76 40 0
51 4 73 31 31 37 33 59 6 59 -11 0 -20 -6 -20 -13 0 -21 -34 -47 -62 -47 -41
0 -63 34 -63 97 0 45 4 58 24 74 32 26 66 24 89 -6 11 -14 25 -25 30 -25 23 0
21 20 -4 49 -36 43 -99 44 -144 4z"/>
<path d="M13490 6773 c-37 -33 -49 -91 -30 -147 18 -55 45 -76 101 -76 40 0
51 4 73 31 31 37 33 59 6 59 -11 0 -20 -6 -20 -13 0 -21 -34 -47 -62 -47 -41
0 -63 34 -63 97 0 45 4 58 24 74 32 26 66 24 89 -6 11 -14 25 -25 30 -25 23 0
21 20 -4 49 -36 43 -99 44 -144 4z"/>
<path d="M13729 6772 c-40 -36 -51 -109 -25 -164 30 -63 119 -79 175 -32 34
29 38 42 16 50 -9 4 -23 -4 -36 -20 -35 -45 -107 -27 -124 31 -6 22 -4 22 87
25 l93 3 -4 30 c-4 40 -27 82 -50 95 -39 20 -98 12 -132 -18z"/>
<path d="M13992 6783 c-52 -46 -25 -103 57 -123 54 -13 77 -31 68 -55 -14 -34
-105 -30 -114 6 -3 11 -12 19 -21 17 -26 -5 -25 -26 2 -53 36 -36 116 -36 151
0 49 48 25 96 -61 121 -62 18 -83 37 -64 59 19 23 76 19 94 -6 9 -13 21 -19
30 -16 23 9 20 23 -10 46 -34 27 -103 28 -132 4z"/>
<path d="M14232 6783 c-52 -46 -25 -103 57 -123 54 -13 77 -31 68 -55 -14 -34
-105 -30 -114 6 -3 11 -12 19 -21 17 -26 -5 -25 -26 2 -53 36 -36 116 -36 151
0 49 48 25 96 -61 121 -62 18 -83 37 -64 59 19 23 76 19 94 -6 9 -13 21 -19
30 -16 23 9 20 23 -10 46 -34 27 -103 28 -132 4z"/>
<path d="M14734 6789 c-32 -16 -54 -62 -54 -114 0 -83 37 -124 111 -125 81 0
131 68 115 156 -11 56 -54 94 -108 93 -24 0 -52 -5 -64 -10z m99 -33 c42 -32
40 -143 -3 -166 -57 -31 -110 11 -110 87 0 72 63 117 113 79z"/>
<path d="M14997 6789 c-44 -26 -61 -122 -32 -179 29 -57 87 -76 133 -44 21 15
22 14 22 -14 0 -38 -19 -60 -56 -68 -24 -5 -37 -1 -51 13 -30 30 -53 36 -53
14 0 -34 38 -56 97 -56 48 0 58 4 79 28 23 27 24 34 24 173 0 121 -2 144 -15
144 -8 0 -15 -7 -15 -16 0 -14 -2 -14 -22 0 -25 18 -84 21 -111 5z m93 -29
c41 -22 47 -122 9 -156 -48 -43 -109 -4 -109 71 0 72 48 113 100 85z"/>
<path d="M1415 6745 c-14 -13 -25 -29 -25 -35 0 -17 29 -11 50 10 36 36 117
17 109 -25 -3 -15 -19 -22 -69 -32 -70 -14 -100 -38 -100 -79 0 -38 34 -64 83
-64 24 0 52 7 63 15 25 19 34 19 34 0 0 -9 9 -15 21 -15 17 0 20 4 15 23 -3
12 -6 59 -6 105 0 105 -14 122 -95 122 -46 0 -60 -4 -80 -25z"/>
<path d="M2050 6743 c-37 -33 -49 -91 -30 -147 18 -55 45 -76 101 -76 40 0 51
4 73 31 31 37 33 59 6 59 -11 0 -20 -6 -20 -13 0 -21 -34 -47 -62 -47 -41 0
-63 34 -63 97 0 45 4 58 24 74 32 26 66 24 89 -6 11 -14 25 -25 30 -25 23 0
21 20 -4 49 -36 43 -99 44 -144 4z"/>
<path d="M2832 6753 c-52 -46 -25 -103 57 -123 54 -13 77 -31 68 -55 -14 -34
-105 -30 -114 6 -3 11 -12 19 -21 17 -26 -5 -25 -26 2 -53 36 -36 116 -36 151
0 49 48 25 96 -61 121 -62 18 -83 37 -64 59 19 23 76 19 94 -6 9 -13 21 -19
30 -16 23 9 20 23 -10 46 -34 27 -103 28 -132 4z"/>
<path d="M3854 6753 c78 -197 89 -236 75 -262 -8 -14 -25 -27 -37 -29 -28 -4
-31 -42 -3 -42 33 0 51 11 66 40 15 30 115 292 115 303 0 4 -8 7 -18 7 -13 0
-26 -24 -53 -101 l-35 -101 -36 98 c-29 83 -39 100 -58 102 -19 3 -21 0 -16
-15z"/>
<path d="M19440 4975 l0 -195 40 0 40 0 0 80 0 80 28 0 c32 0 53 -19 107 -102
36 -56 39 -58 81 -58 24 0 44 3 44 6 0 14 -91 142 -105 148 -21 8 -19 26 4 26
10 0 30 12 45 26 20 21 26 37 26 70 0 87 -51 112 -227 113 l-83 1 0 -195z"/>
<path d="M20160 4975 l0 -195 35 0 35 0 0 195 0 195 -35 0 -35 0 0 -195z"/>
<path d="M21121 5151 c-13 -13 -21 -34 -21 -56 0 -28 -4 -35 -20 -35 -16 0
-20 -7 -20 -30 0 -23 4 -30 20 -30 19 0 20 -7 20 -110 l0 -110 35 0 35 0 0
109 0 110 28 3 c21 2 28 9 30 31 3 24 0 27 -27 27 -24 0 -31 4 -31 19 0 24 23
43 47 39 13 -2 18 3 18 22 0 23 -4 25 -47 28 -37 2 -51 -1 -67 -17z"/>
<path d="M21397 5164 c-4 -4 -7 -20 -7 -36 0 -28 1 -28 60 -28 l60 0 0 -160 0
-160 35 0 35 0 0 160 0 160 61 0 60 0 -3 33 -3 32 -146 3 c-80 1 -148 -1 -152
-4z"/>
<path d="M21750 4975 l0 -195 34 0 34 0 4 101 c2 86 6 103 22 115 24 17 58 18
74 2 8 -8 12 -48 12 -115 l0 -103 35 0 35 0 0 115 c0 110 -1 117 -25 140 -29
30 -92 34 -130 9 l-25 -16 0 71 0 71 -35 0 -35 0 0 -195z"/>
<path d="M22890 4975 l0 -195 30 0 c24 0 30 4 30 21 l0 20 26 -20 c38 -30 103
-28 137 3 26 24 47 81 47 126 -1 36 -35 107 -58 119 -30 16 -94 13 -120 -5
l-22 -15 0 70 0 71 -35 0 -35 0 0 -195z m174 13 c23 -33 21 -113 -4 -138 -26
-26 -46 -25 -75 5 -33 32 -35 105 -5 135 27 27 65 26 84 -2z"/>
<path d="M19830 4945 c0 -110 1 -117 25 -140 29 -30 92 -34 130 -9 23 15 25
15 25 0 0 -12 9 -16 35 -16 l35 0 0 140 0 140 -35 0 -35 0 0 -95 c0 -82 -3
-98 -20 -115 -24 -24 -53 -26 -74 -4 -12 12 -16 38 -16 115 l0 99 -35 0 -35 0
0 -115z"/>
<path d="M20349 5045 c-78 -42 -78 -209 0 -249 16 -9 53 -16 81 -16 44 0 56 5
81 29 37 38 37 48 -3 54 -25 3 -36 -1 -46 -14 -13 -19 -48 -25 -68 -11 -11 7
-34 45 -34 56 0 3 43 6 95 6 60 0 95 4 95 11 0 40 -26 102 -52 124 -34 29
-106 34 -149 10z"/>
<path d="M20809 5043 c-84 -52 -83 -205 1 -248 41 -21 118 -19 156 4 36 22 64
75 64 121 0 46 -28 99 -64 121 -39 24 -121 25 -157 2z m117 -56 c38 -33 37
-102 -1 -135 -18 -15 -34 -21 -48 -16 -69 19 -79 138 -14 164 32 13 33 12 63
-13z"/>
<path d="M22080 4945 c0 -110 1 -117 25 -140 29 -30 92 -34 130 -9 23 15 25
15 25 0 0 -12 9 -16 35 -16 l35 0 0 140 0 140 -35 0 -35 0 0 -95 c0 -82 -3
-98 -20 -115 -24 -24 -53 -26 -74 -4 -12 12 -16 38 -16 115 l0 99 -35 0 -35 0
0 -115z"/>
<path d="M22400 4920 l0 -140 40 0 40 0 0 98 c0 83 3 102 18 115 10 10 25 17
33 17 32 0 39 -23 39 -127 l0 -103 40 0 40 0 0 98 c0 83 3 102 18 115 10 10
25 17 33 17 32 0 39 -23 39 -127 l0 -103 35 0 35 0 0 118 c0 111 -1 120 -23
140 -30 28 -95 30 -127 4 -23 -18 -24 -18 -42 0 -23 23 -100 25 -118 3 -7 -8
-16 -15 -21 -15 -5 0 -9 7 -9 15 0 10 -11 15 -35 15 l-35 0 0 -140z"/>
<path d="M20610 4275 c0 -188 1 -195 20 -195 19 0 20 7 20 195 0 188 -1 195
-20 195 -19 0 -20 -7 -20 -195z"/>
<path d="M21210 4450 c-12 -12 -20 -33 -20 -55 0 -28 -4 -35 -20 -35 -13 0
-20 -7 -20 -20 0 -13 7 -20 20 -20 19 0 20 -7 20 -120 0 -113 1 -120 20 -120
19 0 20 7 20 119 l0 120 27 3 c17 2 29 10 31 21 3 13 -3 17 -27 17 -21 0 -31
5 -31 16 0 29 21 54 44 54 20 0 36 16 36 36 0 2 -18 4 -40 4 -27 0 -47 -7 -60
-20z"/>
<path d="M22222 4438 c-7 -7 -12 -27 -12 -45 0 -26 -4 -33 -20 -33 -13 0 -20
-7 -20 -20 0 -13 7 -20 20 -20 19 0 20 -7 20 -108 0 -120 5 -132 57 -132 26 0
33 4 33 19 0 13 -8 21 -22 23 -22 3 -23 8 -26 101 l-3 97 26 0 c18 0 25 5 25
20 0 15 -7 20 -25 20 -23 0 -25 4 -25 45 0 46 -7 54 -28 33z"/>
<path d="M25042 4438 c-7 -7 -12 -27 -12 -45 0 -26 -4 -33 -20 -33 -13 0 -20
-7 -20 -20 0 -13 7 -20 20 -20 19 0 20 -7 20 -108 0 -120 5 -132 57 -132 26 0
33 4 33 19 0 13 -8 21 -22 23 -22 3 -23 8 -26 101 l-3 97 26 0 c18 0 25 5 25
20 0 15 -7 20 -25 20 -23 0 -25 4 -25 45 0 46 -7 54 -28 33z"/>
<path d="M19632 4337 c-26 -28 -29 -79 -6 -98 9 -8 44 -23 77 -34 74 -25 92
-48 58 -76 -34 -28 -68 -24 -102 12 -17 19 -35 29 -44 25 -22 -8 -18 -24 14
-57 26 -25 37 -29 86 -29 49 0 60 4 86 29 54 54 28 104 -72 136 -72 23 -95 48
-65 71 30 22 72 17 94 -10 13 -18 25 -23 40 -19 20 5 20 7 7 33 -18 34 -32 40
-99 40 -42 0 -57 -5 -74 -23z"/>
<path d="M20010 4220 c0 -133 1 -140 20 -140 19 0 20 7 20 90 0 49 5 100 11
114 14 31 63 50 90 36 31 -17 39 -45 39 -144 0 -89 1 -96 20 -96 19 0 20 7 20
114 0 99 -3 117 -21 140 -17 21 -29 26 -68 26 -26 0 -56 -7 -69 -16 -20 -14
-22 -14 -22 0 0 9 -9 16 -20 16 -19 0 -20 -7 -20 -140z"/>
<path d="M20341 4344 c-45 -32 -64 -118 -40 -181 26 -69 91 -99 150 -69 18 9
34 14 37 11 3 -3 0 -23 -7 -45 -9 -32 -18 -41 -44 -48 -42 -11 -75 -4 -88 19
-10 19 -49 27 -49 10 0 -60 113 -94 180 -54 44 26 50 51 50 218 0 148 -1 155
-20 155 -11 0 -20 -7 -20 -16 0 -14 -2 -14 -22 0 -29 21 -97 20 -127 0z m120
-43 c23 -23 29 -38 29 -71 0 -46 -21 -94 -45 -104 -61 -23 -105 18 -105 96 0
57 12 86 43 98 36 14 47 12 78 -19z"/>
<path d="M20765 4338 c-52 -41 -68 -115 -40 -186 20 -49 59 -72 125 -72 44 0
56 4 81 29 32 33 36 49 14 57 -9 4 -27 -6 -44 -25 -18 -20 -39 -31 -56 -31
-32 0 -85 49 -85 79 0 20 5 21 106 21 l106 0 -7 33 c-12 58 -16 66 -46 92 -40
33 -113 35 -154 3z"/>
<path d="M21330 4246 c0 -99 3 -117 21 -140 27 -35 101 -37 136 -4 l23 21 0
-21 c0 -15 6 -22 20 -22 19 0 20 7 20 140 0 130 -1 140 -19 140 -16 0 -19 -11
-23 -101 -6 -115 -21 -142 -79 -142 -50 0 -59 22 -59 140 0 96 -1 103 -20 103
-19 0 -20 -7 -20 -114z"/>
<path d="M21630 4220 c0 -133 1 -140 20 -140 19 0 20 7 20 90 0 49 5 100 11
114 14 31 63 50 90 36 31 -17 39 -45 39 -144 0 -89 1 -96 20 -96 19 0 20 7 20
114 0 99 -3 117 -21 140 -17 21 -29 26 -68 26 -26 0 -56 -7 -69 -16 -20 -14
-22 -14 -22 0 0 9 -9 16 -20 16 -19 0 -20 -7 -20 -140z"/>
<path d="M21968 4343 c-74 -46 -73 -209 2 -248 39 -20 110 -19 136 3 23 18 44
53 44 71 0 22 -41 11 -50 -14 -14 -36 -51 -51 -88 -36 -36 15 -52 48 -52 107
0 37 6 51 29 75 16 16 38 29 48 29 25 0 63 -28 63 -47 0 -10 6 -13 16 -9 9 3
19 6 24 6 16 0 -3 41 -28 60 -31 25 -106 26 -144 3z"/>
<path d="M22504 4341 c-75 -46 -71 -206 7 -246 38 -20 104 -19 140 2 31 19 59
76 59 123 0 47 -28 104 -59 123 -39 23 -108 22 -147 -2z m127 -40 c25 -25 29
-37 29 -81 0 -44 -4 -56 -29 -81 -32 -32 -47 -35 -84 -18 -62 28 -64 168 -3
197 35 18 56 13 87 -17z"/>
<path d="M22770 4220 c0 -133 1 -140 20 -140 19 0 20 7 20 90 0 49 5 100 11
114 14 31 63 50 90 36 31 -17 39 -45 39 -144 0 -89 1 -96 20 -96 19 0 20 7 20
114 0 99 -3 117 -21 140 -17 21 -29 26 -68 26 -26 0 -56 -7 -69 -16 -20 -14
-22 -14 -22 0 0 9 -9 16 -20 16 -19 0 -20 -7 -20 -140z"/>
<path d="M23220 4165 c0 -188 1 -195 20 -195 18 0 20 7 20 72 0 68 1 70 18 55
11 -10 36 -17 61 -17 35 0 49 6 75 33 57 56 56 170 -1 223 -31 28 -96 33 -131
8 -20 -14 -22 -14 -22 0 0 9 -9 16 -20 16 -19 0 -20 -7 -20 -195z m151 152
c26 -20 39 -53 39 -99 0 -73 -48 -120 -100 -98 -34 14 -50 48 -50 105 0 75 64
128 111 92z"/>
<path d="M23555 4338 c-52 -41 -68 -115 -40 -186 20 -49 59 -72 125 -72 44 0
56 4 81 29 32 33 36 49 14 57 -9 4 -27 -6 -44 -25 -18 -20 -39 -31 -56 -31
-32 0 -85 49 -85 79 0 20 5 21 106 21 l106 0 -7 33 c-12 58 -16 66 -46 92 -40
33 -113 35 -154 3z"/>
<path d="M23820 4220 c0 -133 1 -140 20 -140 18 0 20 7 20 78 0 128 23 173 80
160 9 -2 16 6 18 20 3 19 -1 22 -29 22 -18 0 -41 -7 -51 -17 -17 -15 -18 -15
-18 0 0 10 -8 17 -20 17 -19 0 -20 -7 -20 -140z"/>
<path d="M24188 4343 c-74 -46 -73 -209 2 -248 39 -20 110 -19 136 3 23 18 44
53 44 71 0 22 -41 11 -50 -14 -14 -36 -51 -51 -88 -36 -36 15 -52 48 -52 107
0 37 6 51 29 75 16 16 38 29 48 29 25 0 63 -28 63 -47 0 -10 6 -13 16 -9 9 3
19 6 24 6 16 0 -3 41 -28 60 -31 25 -106 26 -144 3z"/>
<path d="M24454 4341 c-75 -46 -71 -206 7 -246 38 -20 104 -19 140 2 31 19 59
76 59 123 0 47 -28 104 -59 123 -39 23 -108 22 -147 -2z m127 -40 c25 -25 29
-37 29 -81 0 -44 -4 -56 -29 -81 -32 -32 -47 -35 -84 -18 -62 28 -64 168 -3
197 35 18 56 13 87 -17z"/>
<path d="M24720 4220 c0 -133 1 -140 20 -140 19 0 20 7 20 90 0 49 5 100 11
114 14 31 63 50 90 36 31 -17 39 -45 39 -144 0 -89 1 -96 20 -96 19 0 20 7 20
114 0 99 -3 117 -21 140 -17 21 -29 26 -68 26 -26 0 -56 -7 -69 -16 -20 -14
-22 -14 -22 0 0 9 -9 16 -20 16 -19 0 -20 -7 -20 -140z"/>
<path d="M25190 4331 c-17 -16 -30 -34 -30 -40 0 -20 39 -11 65 15 22 22 33
25 62 21 43 -7 52 -15 55 -47 3 -25 1 -26 -106 -45 -119 -21 -110 -155 11
-155 29 0 58 7 72 16 22 16 24 16 33 0 5 -9 17 -16 26 -16 16 0 17 12 14 113
-4 148 -13 161 -106 165 -62 3 -68 1 -96 -27z"/>
<path d="M25590 4220 c0 -133 1 -140 20 -140 19 0 20 7 20 90 0 49 5 100 11
114 14 31 63 50 90 36 31 -17 39 -45 39 -144 0 -89 1 -96 20 -96 19 0 20 7 20
114 0 99 -3 117 -21 140 -17 21 -29 26 -68 26 -26 0 -56 -7 -69 -16 -20 -14
-22 -14 -22 0 0 9 -9 16 -20 16 -19 0 -20 -7 -20 -140z"/>
<path d="M25925 4338 c-52 -41 -68 -115 -40 -186 20 -49 59 -72 125 -72 44 0
56 4 81 29 32 33 36 49 14 57 -9 4 -27 -6 -44 -25 -18 -20 -39 -31 -56 -31
-32 0 -85 49 -85 79 0 20 5 21 106 21 l106 0 -7 33 c-12 58 -16 66 -46 92 -40
33 -113 35 -154 3z"/>
<path d="M26190 4220 c0 -133 1 -140 20 -140 18 0 20 7 20 78 0 128 23 173 80
160 9 -2 16 6 18 20 3 19 -1 22 -29 22 -18 0 -41 -7 -51 -17 -17 -15 -18 -15
-18 0 0 10 -8 17 -20 17 -19 0 -20 -7 -20 -140z"/>
<path d="M1519 4071 c-75 -24 -109 -76 -109 -165 0 -108 45 -166 135 -174 67
-5 103 8 133 51 26 40 28 53 6 61 -20 8 -17 10 -38 -31 -35 -70 -145 -63 -180
12 -31 65 -13 165 35 199 13 9 41 16 63 16 31 0 45 -7 72 -35 20 -22 38 -33
48 -29 14 5 14 9 1 35 -9 16 -25 35 -38 43 -28 19 -94 28 -128 17z"/>
<path d="M1794 3969 c-32 -16 -54 -62 -54 -114 0 -83 37 -124 111 -125 81 0
131 68 115 156 -11 56 -54 94 -108 93 -24 0 -52 -5 -64 -10z m99 -33 c42 -32
40 -143 -3 -166 -57 -31 -110 11 -110 87 0 72 63 117 113 79z"/>
<path d="M2209 3952 c-40 -36 -51 -109 -25 -164 30 -63 119 -79 175 -32 34 29
38 42 16 50 -9 4 -23 -4 -36 -20 -35 -45 -107 -27 -124 31 -6 22 -4 22 87 25
l93 3 -4 30 c-4 40 -27 82 -50 95 -39 20 -98 12 -132 -18z"/>
<path d="M2580 3855 c0 -116 1 -125 19 -125 17 0 19 9 23 89 3 97 20 131 64
131 34 0 44 -28 44 -129 0 -84 1 -91 20 -91 19 0 20 7 20 90 0 77 3 93 20 110
25 25 52 26 73 2 13 -15 17 -39 17 -110 0 -85 1 -92 20 -92 19 0 20 7 20 89 0
90 -11 139 -33 153 -22 14 -74 8 -97 -10 -23 -18 -24 -18 -42 0 -22 22 -76 24
-106 2 -20 -14 -22 -14 -22 0 0 9 -9 16 -20 16 -19 0 -20 -7 -20 -125z"/>
<path d="M3120 3953 c-37 -33 -49 -91 -30 -147 18 -55 45 -76 101 -76 40 0 51
4 73 31 31 37 33 59 6 59 -11 0 -20 -6 -20 -13 0 -21 -34 -47 -62 -47 -41 0
-63 34 -63 97 0 45 4 58 24 74 32 26 66 24 89 -6 11 -14 25 -25 30 -25 23 0
21 20 -4 49 -36 43 -99 44 -144 4z"/>
<path d="M3534 3969 c-32 -16 -54 -62 -54 -114 0 -83 37 -124 111 -125 81 0
131 68 115 156 -11 56 -54 94 -108 93 -24 0 -52 -5 -64 -10z m99 -33 c42 -32
40 -143 -3 -166 -57 -31 -110 11 -110 87 0 72 63 117 113 79z"/>
<path d="M3772 3963 c-52 -46 -25 -103 57 -123 54 -13 77 -31 68 -55 -14 -34
-105 -30 -114 6 -3 11 -12 19 -21 17 -26 -5 -25 -26 2 -53 36 -36 116 -36 151
0 49 48 25 96 -61 121 -62 18 -83 37 -64 59 19 23 76 19 94 -6 9 -13 21 -19
30 -16 23 9 20 23 -10 46 -34 27 -103 28 -132 4z"/>
<path d="M4019 3952 c-40 -36 -51 -109 -25 -164 30 -63 119 -79 175 -32 34 29
38 42 16 50 -9 4 -23 -4 -36 -20 -35 -45 -107 -27 -124 31 -6 22 -4 22 87 25
l93 3 -4 30 c-4 40 -27 82 -50 95 -39 20 -98 12 -132 -18z"/>
<path d="M4400 3976 c0 -2 12 -35 26 -72 14 -38 35 -93 46 -121 31 -83 48 -73
96 50 57 148 57 147 34 147 -16 0 -27 -19 -53 -95 -19 -52 -37 -95 -40 -95 -3
0 -12 19 -19 43 -31 105 -51 147 -71 147 -10 0 -19 -2 -19 -4z"/>
<path d="M4800 3953 c-37 -33 -49 -91 -30 -147 18 -55 45 -76 101 -76 40 0 51
4 73 31 31 37 33 59 6 59 -11 0 -20 -6 -20 -13 0 -21 -34 -47 -62 -47 -41 0
-63 34 -63 97 0 45 4 58 24 74 32 26 66 24 89 -6 11 -14 25 -25 30 -25 23 0
21 20 -4 49 -36 43 -99 44 -144 4z"/>
<path d="M5039 3952 c-40 -36 -51 -109 -25 -164 30 -63 119 -79 175 -32 34 29
38 42 16 50 -9 4 -23 -4 -36 -20 -35 -45 -107 -27 -124 31 -6 22 -4 22 87 25
l93 3 -4 30 c-4 40 -27 82 -50 95 -39 20 -98 12 -132 -18z"/>
<path d="M5292 3963 c-52 -46 -25 -103 57 -123 54 -13 77 -31 68 -55 -14 -34
-105 -30 -114 6 -3 11 -12 19 -21 17 -26 -5 -25 -26 2 -53 36 -36 116 -36 151
0 49 48 25 96 -61 121 -62 18 -83 37 -64 59 19 23 76 19 94 -6 9 -13 21 -19
30 -16 23 9 20 23 -10 46 -34 27 -103 28 -132 4z"/>
<path d="M10725 3909 c-2 -8 -6 -41 -7 -74 l-3 -60 -152 -3 -153 -3 0 -69 0
-70 -75 0 -75 0 0 -70 0 -70 -36 0 -36 0 4 -87 c5 -109 36 -182 105 -251 79
-79 172 -112 316 -112 249 0 457 106 579 294 21 33 41 70 44 83 5 18 13 23 38
23 46 0 117 39 143 79 13 19 23 37 23 41 0 16 -71 40 -118 40 -45 0 -50 3 -56
25 -7 28 -59 90 -88 106 -16 9 -21 4 -38 -33 -21 -47 -26 -137 -10 -169 9 -16
7 -21 -15 -29 -59 -22 -65 -17 -65 60 l0 70 -75 0 -75 0 0 140 0 140 -47 0
c-27 0 -65 3 -85 6 -27 5 -39 3 -43 -7z m-157 -216 l-3 -58 -62 -3 -63 -3 0
61 0 60 65 0 66 0 -3 -57z m152 -3 l0 -61 -62 3 -63 3 -3 58 -3 57 66 0 65 0
0 -60z m526 -87 c6 -33 8 -34 44 -28 21 4 57 1 80 -5 40 -11 41 -12 27 -33
-25 -39 -77 -67 -124 -67 -41 0 -45 -2 -59 -37 -27 -64 -81 -139 -141 -198
-186 -181 -558 -231 -731 -98 l-37 28 71 6 c71 7 157 40 136 53 -6 4 -25 0
-42 -9 -18 -9 -62 -19 -99 -22 -62 -5 -70 -4 -89 18 -30 31 -59 113 -68 187
l-6 61 448 3 c408 3 452 5 482 21 37 20 36 17 17 53 -19 38 -19 95 1 142 l16
37 34 -39 c18 -21 37 -54 40 -73z m-678 -55 l3 -58 -66 0 -65 0 0 60 0 61 63
-3 62 -3 3 -57z m150 0 l3 -58 -66 0 -65 0 0 53 c0 30 3 57 7 61 4 4 32 6 63
4 l55 -3 3 -57z m310 0 l3 -58 -66 0 -65 0 0 60 0 61 63 -3 62 -3 3 -57z"/>
<path d="M19830 3695 c0 -188 1 -195 20 -195 19 0 20 7 20 90 0 49 5 100 11
114 15 33 60 52 88 37 34 -18 41 -45 41 -145 0 -89 1 -96 20 -96 19 0 20 7 20
115 0 110 -1 117 -25 140 -29 30 -97 34 -133 9 l-22 -15 0 70 c0 64 -2 71 -20
71 -19 0 -20 -7 -20 -195z"/>
<path d="M22560 3695 c0 -188 1 -195 20 -195 18 0 20 7 20 53 0 41 5 58 19 72
19 17 21 15 66 -54 36 -56 51 -71 70 -71 14 0 25 2 25 5 0 3 -25 42 -55 88
l-55 82 52 52 52 53 -29 0 c-22 0 -43 -14 -87 -57 l-58 -57 0 112 c0 105 -1
112 -20 112 -19 0 -20 -7 -20 -195z"/>
<path d="M6993 3755 c6 -34 5 -35 -34 -41 -21 -4 -39 -11 -39 -15 0 -5 18 -6
40 -3 37 6 40 5 40 -17 0 -53 13 -53 95 0 74 47 77 51 54 59 -173 64 -163 63
-156 17z"/>
<path d="M19445 3643 c38 -126 44 -138 66 -141 24 -3 26 2 48 90 32 123 35
128 49 67 30 -130 42 -159 66 -159 20 0 27 14 64 133 23 73 42 136 42 140 0 4
-9 7 -19 7 -20 0 -21 -3 -78 -195 -7 -24 -9 -20 -44 113 -19 72 -24 82 -44 82
-21 0 -26 -10 -51 -104 -15 -58 -31 -103 -35 -101 -4 3 -12 26 -18 52 -34 135
-42 153 -65 153 l-23 0 42 -137z"/>
<path d="M20165 3758 c-52 -41 -68 -115 -40 -186 20 -49 59 -72 125 -72 44 0
56 4 81 29 32 33 36 49 14 57 -9 4 -27 -6 -44 -25 -18 -20 -39 -31 -56 -31
-32 0 -85 49 -85 79 0 20 5 21 106 21 l106 0 -7 33 c-12 58 -16 66 -46 92 -40
33 -113 35 -154 3z"/>
<path d="M20430 3640 c0 -133 1 -140 20 -140 18 0 20 7 20 78 0 128 23 173 80
160 9 -2 16 6 18 20 3 19 -1 22 -29 22 -18 0 -41 -7 -51 -17 -17 -15 -18 -15
-18 0 0 10 -8 17 -20 17 -19 0 -20 -7 -20 -140z"/>
<path d="M20645 3758 c-52 -41 -68 -115 -40 -186 20 -49 59 -72 125 -72 44 0
56 4 81 29 32 33 36 49 14 57 -9 4 -27 -6 -44 -25 -18 -20 -39 -31 -56 -31
-32 0 -85 49 -85 79 0 20 5 21 106 21 l106 0 -7 33 c-12 58 -16 66 -46 92 -40
33 -113 35 -154 3z"/>
<path d="M20885 3763 c4 -10 27 -73 53 -140 69 -183 70 -183 190 145 2 7 -5
12 -19 12 -21 0 -28 -12 -63 -110 -21 -60 -40 -110 -41 -110 -2 0 -20 50 -40
110 -35 100 -40 110 -63 110 -19 0 -23 -4 -17 -17z"/>
<path d="M21215 3758 c-52 -41 -68 -115 -40 -186 20 -49 59 -72 125 -72 44 0
56 4 81 29 32 33 36 49 14 57 -9 4 -27 -6 -44 -25 -18 -20 -39 -31 -56 -31
-32 0 -85 49 -85 79 0 20 5 21 106 21 l106 0 -7 33 c-12 58 -16 66 -46 92 -40
33 -113 35 -154 3z"/>
<path d="M21480 3640 c0 -133 1 -140 20 -140 18 0 20 7 20 78 0 128 23 173 80
160 9 -2 16 6 18 20 3 19 -1 22 -29 22 -18 0 -41 -7 -51 -17 -17 -15 -18 -15
-18 0 0 10 -8 17 -20 17 -19 0 -20 -7 -20 -140z"/>
<path d="M21810 3640 c0 -133 1 -140 20 -140 18 0 20 7 20 84 0 45 5 98 11
115 15 42 52 58 85 36 23 -15 24 -21 24 -125 l0 -110 25 0 c25 0 25 0 25 99 0
113 14 144 65 144 46 0 55 -24 55 -140 0 -96 1 -103 20 -103 19 0 20 7 20 120
0 107 -2 122 -20 140 -27 27 -89 27 -122 0 -25 -19 -26 -19 -43 0 -22 25 -91
27 -123 4 -20 -14 -22 -14 -22 0 0 9 -9 16 -20 16 -19 0 -20 -7 -20 -140z"/>
<path d="M22280 3751 c-17 -16 -30 -34 -30 -40 0 -20 39 -11 65 15 22 22 33
25 62 21 43 -7 52 -15 55 -47 3 -25 1 -26 -106 -45 -119 -21 -110 -155 11
-155 29 0 58 7 72 16 22 16 24 16 33 0 5 -9 17 -16 26 -16 16 0 17 12 14 113
-4 148 -13 161 -106 165 -62 3 -68 1 -96 -27z"/>
<path d="M22865 3758 c-52 -41 -68 -115 -40 -186 20 -49 59 -72 125 -72 44 0
56 4 81 29 32 33 36 49 14 57 -9 4 -27 -6 -44 -25 -18 -20 -39 -31 -56 -31
-32 0 -85 49 -85 79 0 20 5 21 106 21 l106 0 -7 33 c-12 58 -16 66 -46 92 -40
33 -113 35 -154 3z"/>
<path d="M23292 3757 c-26 -28 -29 -79 -6 -98 9 -8 44 -23 77 -34 74 -25 92
-48 58 -76 -34 -28 -68 -24 -102 12 -17 19 -35 29 -44 25 -22 -8 -18 -24 14
-57 26 -25 37 -29 86 -29 49 0 60 4 86 29 54 54 28 104 -72 136 -72 23 -95 48
-65 71 30 22 72 17 94 -10 13 -18 25 -23 40 -19 20 5 20 7 7 33 -18 34 -32 40
-99 40 -42 0 -57 -5 -74 -23z"/>
<path d="M23585 3758 c-52 -41 -68 -115 -40 -186 20 -49 59 -72 125 -72 44 0
56 4 81 29 32 33 36 49 14 57 -9 4 -27 -6 -44 -25 -18 -20 -39 -31 -56 -31
-32 0 -85 49 -85 79 0 20 5 21 106 21 l106 0 -7 33 c-12 58 -16 66 -46 92 -40
33 -113 35 -154 3z"/>
<path d="M23850 3640 c0 -133 1 -140 20 -140 19 0 20 7 20 90 0 49 5 100 11
114 14 31 63 50 90 36 31 -17 39 -45 39 -144 0 -89 1 -96 20 -96 19 0 20 7 20
114 0 99 -3 117 -21 140 -17 21 -29 26 -68 26 -26 0 -56 -7 -69 -16 -20 -14
-22 -14 -22 0 0 9 -9 16 -20 16 -19 0 -20 -7 -20 -140z"/>
<path d="M24162 3757 c-26 -28 -29 -79 -6 -98 9 -8 44 -23 77 -34 74 -25 92
-48 58 -76 -34 -28 -68 -24 -102 12 -17 19 -35 29 -44 25 -22 -8 -18 -24 14
-57 26 -25 37 -29 86 -29 49 0 60 4 86 29 54 54 28 104 -72 136 -72 23 -95 48
-65 71 30 22 72 17 94 -10 13 -18 25 -23 40 -19 20 5 20 7 7 33 -18 34 -32 40
-99 40 -42 0 -57 -5 -74 -23z"/>
<path d="M24455 3758 c-52 -41 -68 -115 -40 -186 20 -49 59 -72 125 -72 44 0
56 4 81 29 32 33 36 49 14 57 -9 4 -27 -6 -44 -25 -18 -20 -39 -31 -56 -31
-32 0 -85 49 -85 79 0 20 5 21 106 21 l106 0 -7 33 c-12 58 -16 66 -46 92 -40
33 -113 35 -154 3z"/>
<path d="M2948 3529 c-11 -6 -18 -22 -18 -39 0 -20 -5 -30 -15 -30 -8 0 -15
-7 -15 -15 0 -8 7 -15 15 -15 12 0 15 -17 15 -91 0 -110 8 -129 56 -129 29 0
35 3 30 16 -3 9 -6 18 -6 20 0 2 -9 4 -20 4 -19 0 -20 7 -20 90 0 83 1 90 20
90 11 0 20 7 20 15 0 8 -9 15 -19 15 -16 0 -20 8 -23 39 -3 35 -5 38 -20 30z"/>
<path d="M1435 3435 c-14 -13 -25 -29 -25 -35 0 -17 29 -11 50 10 36 36 117
17 109 -25 -3 -15 -19 -22 -69 -32 -70 -14 -100 -38 -100 -79 0 -38 34 -64 83
-64 24 0 52 7 63 15 25 19 34 19 34 0 0 -9 9 -15 21 -15 17 0 20 4 15 23 -3
12 -6 59 -6 105 0 105 -14 122 -95 122 -46 0 -60 -4 -80 -25z"/>
<path d="M1670 3290 c0 -163 1 -170 20 -170 18 0 20 7 20 55 0 51 10 69 25 45
3 -5 24 -10 47 -10 31 0 46 6 68 30 48 52 46 154 -5 198 -31 27 -90 30 -117 5
-17 -15 -18 -15 -18 0 0 10 -8 17 -20 17 -19 0 -20 -7 -20 -170z m154 118 c26
-41 24 -120 -4 -148 -47 -47 -110 -4 -110 75 0 55 30 95 70 95 20 0 34 -8 44
-22z"/>
<path d="M1940 3290 c0 -163 1 -170 20 -170 18 0 20 7 20 55 0 51 10 69 25 45
3 -5 24 -10 47 -10 31 0 46 6 68 30 48 52 46 154 -5 198 -31 27 -90 30 -117 5
-17 -15 -18 -15 -18 0 0 10 -8 17 -20 17 -19 0 -20 -7 -20 -170z m154 118 c26
-41 24 -120 -4 -148 -47 -47 -110 -4 -110 75 0 55 30 95 70 95 20 0 34 -8 44
-22z"/>
<path d="M2450 3433 c-37 -33 -49 -91 -30 -147 18 -55 45 -76 101 -76 40 0 51
4 73 31 31 37 33 59 6 59 -11 0 -20 -6 -20 -13 0 -21 -34 -47 -62 -47 -41 0
-63 34 -63 97 0 45 4 58 24 74 32 26 66 24 89 -6 11 -14 25 -25 30 -25 23 0
21 20 -4 49 -36 43 -99 44 -144 4z"/>
<path d="M2685 3435 c-14 -13 -25 -29 -25 -35 0 -17 29 -11 50 10 36 36 117
17 109 -25 -3 -15 -19 -22 -69 -32 -70 -14 -100 -38 -100 -79 0 -38 34 -64 83
-64 24 0 52 7 63 15 25 19 34 19 34 0 0 -9 9 -15 21 -15 17 0 20 4 15 23 -3
12 -6 59 -6 105 0 105 -14 122 -95 122 -46 0 -60 -4 -80 -25z"/>
<path d="M3204 3449 c-32 -16 -54 -62 -54 -114 0 -83 37 -124 111 -125 81 0
131 68 115 156 -11 56 -54 94 -108 93 -24 0 -52 -5 -64 -10z m99 -33 c42 -32
40 -143 -3 -166 -57 -31 -110 11 -110 87 0 72 63 117 113 79z"/>
<path d="M3430 3335 c0 -116 1 -125 19 -125 17 0 19 9 23 91 3 81 6 93 27 110
28 23 54 24 75 3 12 -12 16 -37 16 -110 0 -87 1 -94 20 -94 19 0 20 7 20 105
0 92 -3 108 -20 125 -24 24 -86 27 -118 4 -20 -14 -22 -14 -22 0 0 9 -9 16
-20 16 -19 0 -20 -7 -20 -125z"/>
<path d="M6390 2955 c0 -164 2 -195 15 -195 11 0 15 18 17 78 l3 77 73 5 c65
4 77 8 98 33 31 36 34 122 6 157 -20 24 -78 39 -159 40 l-53 0 0 -195z m174
129 c9 -9 16 -32 16 -54 0 -53 -29 -72 -102 -68 l-53 3 -3 68 -3 67 65 0 c45
0 69 -5 80 -16z"/>
<path d="M7070 3078 c0 -69 0 -71 -19 -54 -13 12 -32 16 -57 14 -56 -4 -84
-49 -84 -135 0 -69 17 -116 49 -133 29 -15 72 -12 93 7 17 15 18 15 18 0 0
-10 7 -17 15 -17 13 0 15 28 15 195 0 167 -2 195 -15 195 -12 0 -15 -15 -15
-72z m-40 -78 c38 -20 52 -117 25 -170 -31 -60 -85 -44 -105 31 -18 64 12 149
53 149 4 0 17 -4 27 -10z"/>
<path d="M6717 3029 c-29 -17 -47 -65 -47 -129 0 -100 31 -140 108 -140 49 0
87 38 97 100 17 100 -28 180 -102 180 -21 0 -46 -5 -56 -11z m76 -30 c31 -14
47 -48 47 -100 0 -80 -47 -126 -95 -95 -51 34 -53 155 -2 191 26 18 21 18 50
4z"/>
<path d="M1905 2913 c-70 -19 -108 -80 -109 -173 -2 -113 55 -170 167 -170
105 0 161 65 155 182 -4 71 -20 103 -69 140 -25 19 -108 31 -144 21z m116 -82
c24 -25 29 -37 29 -81 0 -67 -21 -105 -65 -120 -46 -15 -84 3 -109 53 -56 116
59 234 145 148z"/>
<path d="M740 2740 l0 -170 83 0 c134 0 187 41 195 150 6 79 -18 144 -62 171
-25 15 -50 19 -123 19 l-93 0 0 -170z m157 110 c37 -14 53 -46 53 -111 0 -50
-13 -87 -34 -101 -6 -4 -35 -8 -63 -8 l-53 0 0 108 c0 60 3 112 7 115 10 10
56 8 90 -3z"/>
<path d="M1090 2740 l0 -170 125 0 125 0 0 30 0 30 -95 0 -95 0 0 45 0 44 88
3 c87 3 87 3 90 31 l3 27 -91 0 -91 0 3 38 3 37 93 3 c90 3 92 3 92 27 l0 25
-125 0 -125 0 0 -170z"/>
<path d="M1410 2740 l0 -170 30 0 30 0 1 128 1 127 32 -125 32 -125 34 0 34 0
32 125 32 125 1 -127 1 -128 30 0 30 0 0 170 0 170 -49 0 -49 0 -28 -110 c-16
-60 -31 -110 -34 -110 -3 0 -18 50 -34 110 l-28 110 -49 0 -49 0 0 -170z"/>
<path d="M2320 2740 l0 -170 125 0 125 0 0 30 0 30 -95 0 -95 0 0 45 0 44 88
3 c87 3 87 3 90 31 l3 27 -91 0 -91 0 3 38 3 37 93 3 c90 3 92 3 92 27 l0 25
-125 0 -125 0 0 -170z"/>
<path d="M3890 2740 l0 -170 30 0 30 0 0 170 0 170 -30 0 -30 0 0 -170z"/>
<path d="M2616 2808 c5 -7 23 -35 42 -61 l34 -48 -38 -57 c-51 -75 -51 -72
-10 -72 30 0 40 6 58 35 13 19 26 35 30 35 3 0 16 -16 28 -35 19 -31 27 -35
62 -35 l40 0 -47 65 -46 66 33 47 c54 74 53 72 14 72 -29 0 -39 -6 -60 -36
l-24 -36 -24 36 c-20 31 -28 36 -61 36 -28 0 -36 -3 -31 -12z"/>
<path d="M2916 2799 c-35 -28 -34 -49 3 -49 17 0 33 5 36 10 10 16 65 12 72
-5 8 -21 3 -24 -57 -40 -29 -8 -61 -21 -71 -31 -25 -22 -24 -69 1 -94 24 -24
86 -27 117 -5 19 13 22 13 27 0 3 -9 18 -15 35 -15 28 0 29 1 21 38 -5 20 -9
68 -8 106 0 61 -3 72 -22 88 -32 26 -119 25 -154 -3z"/>
<path d="M3160 2695 l0 -125 29 0 28 0 5 84 c5 94 17 119 57 114 26 -3 26 -4
29 -100 l3 -98 28 0 28 0 5 85 c6 94 18 118 57 113 26 -3 26 -4 29 -100 l3
-98 29 0 30 0 0 105 c0 92 -3 108 -20 125 -24 24 -77 26 -108 4 -21 -15 -25
-15 -41 0 -22 20 -80 21 -109 0 -20 -14 -22 -14 -22 0 0 11 -10 16 -30 16
l-30 0 0 -125z"/>
<path d="M3590 2675 l0 -145 -1445 0 -1445 0 0 -35 0 -35 1775 0 1775 0 0 35
0 35 -295 0 -295 0 0 37 c0 34 1 35 18 20 21 -19 73 -22 103 -7 28 16 49 63
49 115 0 52 -21 99 -49 115 -29 15 -87 12 -101 -5 -7 -8 -16 -15 -21 -15 -5 0
-9 7 -9 15 0 10 -10 15 -30 15 l-30 0 0 -145z"/>
<path d="M4034 2786 c-30 -30 -34 -40 -34 -86 0 -88 35 -129 112 -130 36 0 54
6 77 26 38 32 39 40 4 47 -20 4 -33 -1 -46 -14 -23 -24 -42 -24 -67 1 -40 40
-28 50 66 50 l86 0 -7 33 c-18 79 -47 107 -115 107 -34 0 -48 -6 -76 -34z"/>
<path d="M1392 2253 c2 -14 15 -19 61 -21 l57 -3 0 -149 c0 -143 1 -150 20
-150 19 0 20 7 20 150 l0 150 55 0 c48 0 55 2 55 20 0 19 -7 20 -136 20 -124
0 -135 -2 -132 -17z"/>
<path d="M3120 2100 c0 -160 1 -170 19 -170 17 0 19 9 23 91 3 81 6 93 27 110
28 23 54 24 75 3 12 -12 16 -37 16 -110 0 -87 1 -94 20 -94 19 0 20 7 20 105
0 92 -3 108 -20 125 -24 24 -86 27 -118 4 l-22 -15 0 60 c0 54 -2 61 -20 61
-19 0 -20 -7 -20 -170z"/>
<path d="M3810 2208 c0 -59 -1 -60 -18 -45 -21 19 -74 22 -104 6 -39 -21 -61
-115 -39 -172 22 -58 89 -85 142 -57 13 7 19 7 19 0 0 -5 9 -10 20 -10 19 0
20 7 20 170 0 163 -1 170 -20 170 -18 0 -20 -7 -20 -62z m-22 -78 c30 -29 32
-120 2 -150 -47 -47 -110 -4 -110 75 0 79 59 120 108 75z"/>
<path d="M1865 2155 c-14 -13 -25 -29 -25 -35 0 -17 29 -11 50 10 36 36 117
17 109 -25 -3 -15 -19 -22 -69 -32 -70 -14 -100 -38 -100 -79 0 -38 34 -64 83
-64 24 0 52 7 63 15 25 19 34 19 34 0 0 -9 9 -15 21 -15 17 0 20 4 15 23 -3
12 -6 59 -6 105 0 105 -14 122 -95 122 -46 0 -60 -4 -80 -25z"/>
<path d="M2210 2055 c0 -116 1 -125 19 -125 17 0 19 9 23 91 3 81 6 93 27 110
28 23 54 24 75 3 12 -12 16 -37 16 -110 0 -87 1 -94 20 -94 19 0 20 7 20 105
0 92 -3 108 -20 125 -24 24 -86 27 -118 4 -20 -14 -22 -14 -22 0 0 9 -9 16
-20 16 -19 0 -20 -7 -20 -125z"/>
<path d="M2662 2163 c-52 -46 -25 -103 57 -123 54 -13 77 -31 68 -55 -14 -34
-105 -30 -114 6 -3 11 -12 19 -21 17 -26 -5 -25 -26 2 -53 36 -36 116 -36 151
0 49 48 25 96 -61 121 -62 18 -83 37 -64 59 19 23 76 19 94 -6 9 -13 21 -19
30 -16 23 9 20 23 -10 46 -34 27 -103 28 -132 4z"/>
<path d="M2910 2153 c-37 -33 -49 -91 -30 -147 18 -55 45 -76 101 -76 40 0 51
4 73 31 31 37 33 59 6 59 -11 0 -20 -6 -20 -13 0 -21 -34 -47 -62 -47 -41 0
-63 34 -63 97 0 45 4 58 24 74 32 26 66 24 89 -6 11 -14 25 -25 30 -25 23 0
21 20 -4 49 -36 43 -99 44 -144 4z"/>
<path d="M3419 2152 c-40 -36 -51 -109 -25 -164 30 -63 119 -79 175 -32 34 29
38 42 16 50 -9 4 -23 -4 -36 -20 -35 -45 -107 -27 -124 31 -6 22 -4 22 87 25
l93 3 -4 30 c-4 40 -27 82 -50 95 -39 20 -98 12 -132 -18z"/>
<path d="M3922 2076 c4 -125 16 -146 83 -146 26 0 48 6 55 15 7 8 16 15 21 15
5 0 9 -7 9 -15 0 -8 7 -15 15 -15 13 0 15 21 15 125 0 118 -1 125 -20 125 -19
0 -20 -7 -20 -90 0 -99 -15 -130 -63 -130 -45 0 -57 28 -57 128 0 87 -1 92
-21 92 -20 0 -21 -4 -17 -104z"/>
<path d="M4319 2152 c-40 -36 -51 -109 -25 -164 30 -63 119 -79 175 -32 34 29
38 42 16 50 -9 4 -23 -4 -36 -20 -35 -45 -107 -27 -124 31 -6 22 -4 22 87 25
l93 3 -4 30 c-4 40 -27 82 -50 95 -39 20 -98 12 -132 -18z"/>
<path d="M17516 1968 c-280 -134 -320 -156 -332 -183 -8 -16 -48 -174 -88
-350 -55 -236 -72 -325 -65 -343 15 -38 420 -533 453 -553 29 -18 56 -19 366
-19 310 0 337 1 366 19 38 23 444 523 453 558 8 28 -126 631 -153 688 -12 27
-52 49 -334 183 -176 84 -326 152 -334 152 -7 -1 -156 -69 -332 -152z m363
-76 c5 -10 7 -44 4 -75 -7 -68 2 -82 56 -90 52 -7 135 -45 192 -90 45 -34 48
-35 75 -20 16 8 41 27 56 44 30 33 62 38 77 12 13 -25 -1 -47 -53 -77 -55 -32
-63 -54 -36 -105 28 -56 50 -146 50 -207 0 -30 5 -56 13 -62 7 -6 39 -14 70
-18 62 -7 82 -22 72 -54 -8 -24 -42 -26 -101 -5 -54 18 -78 11 -92 -29 -21
-56 -73 -126 -126 -168 -27 -22 -51 -47 -53 -56 -1 -9 12 -38 28 -64 33 -51
34 -74 7 -92 -23 -14 -49 13 -72 76 -19 52 -39 64 -82 47 -38 -14 -169 -15
-220 0 -23 6 -49 8 -58 5 -9 -3 -25 -32 -37 -65 -22 -61 -48 -81 -74 -59 -22
18 -18 39 11 82 42 60 40 80 -17 123 -49 37 -124 138 -135 180 -8 32 -36 36
-97 16 -61 -20 -84 -18 -93 11 -9 29 14 44 78 52 29 4 58 12 65 18 7 6 13 32
13 59 0 67 18 145 46 203 14 27 22 57 19 67 -4 11 -26 31 -51 45 -52 30 -66
51 -53 76 14 27 42 22 75 -13 16 -17 42 -37 59 -44 27 -12 32 -11 70 21 51 41
143 84 196 91 54 8 63 22 56 90 -7 63 4 93 33 93 11 0 24 -8 29 -18z"/>
<path d="M17745 1626 c-54 -17 -96 -40 -118 -64 -18 -20 -17 -21 54 -71 88
-62 104 -64 113 -13 8 52 8 162 -1 161 -5 0 -26 -6 -48 -13z"/>
<path d="M17900 1578 c0 -94 10 -138 29 -138 10 0 50 23 90 51 69 49 71 52 55
70 -19 21 -104 64 -146 73 l-28 6 0 -62z"/>
<path d="M17526 1433 c-10 -21 -21 -69 -24 -107 -4 -63 -4 -68 14 -63 10 3 52
15 92 27 42 12 76 28 79 37 4 10 -16 35 -63 79 -38 35 -72 63 -75 64 -3 0 -13
-17 -23 -37z"/>
<path d="M18077 1407 c-90 -83 -90 -86 17 -117 35 -10 73 -21 85 -25 19 -6 21
-3 21 44 0 48 -34 162 -48 161 -4 -1 -37 -29 -75 -63z"/>
<path d="M17605 1183 c-43 -8 -81 -16 -83 -18 -9 -9 49 -94 88 -129 23 -21 43
-36 45 -34 2 2 20 41 40 87 27 64 33 87 24 97 -13 16 -10 16 -114 -3z"/>
<path d="M17981 1186 c-9 -10 -3 -33 24 -97 20 -46 38 -86 41 -88 2 -3 23 13
45 35 41 39 95 121 87 130 -4 4 -162 34 -179 34 -4 0 -12 -6 -18 -14z"/>
<path d="M17833 1118 c-6 -7 -29 -46 -51 -86 -37 -65 -39 -74 -24 -80 26 -11
180 -8 191 3 6 7 -6 37 -37 89 -49 83 -62 95 -79 74z"/>
<path d="M6248 1724 c-5 -4 -8 -92 -8 -196 l0 -188 73 0 c94 0 134 20 165 80
44 87 22 243 -41 284 -26 18 -177 34 -189 20z m177 -68 c28 -28 39 -77 33
-152 -6 -76 -31 -107 -96 -118 -83 -14 -82 -17 -82 149 l0 145 60 0 c51 0 65
-4 85 -24z"/>
<path d="M8503 1699 c-7 -7 -13 -28 -13 -46 0 -23 -5 -33 -15 -33 -8 0 -15 -9
-15 -20 0 -11 7 -20 15 -20 12 0 15 -19 15 -108 0 -117 6 -132 52 -132 33 0
40 29 9 37 -25 6 -31 31 -31 126 0 70 2 77 20 77 13 0 20 7 20 20 0 13 -7 20
-19 20 -16 0 -20 8 -23 46 -2 36 -5 43 -15 33z"/>
<path d="M1970 1568 c0 -59 -1 -60 -18 -45 -21 19 -74 22 -104 6 -39 -21 -61
-115 -39 -172 22 -58 89 -85 142 -57 13 7 19 7 19 0 0 -5 9 -10 20 -10 19 0
20 7 20 170 0 163 -1 170 -20 170 -18 0 -20 -7 -20 -62z m-22 -78 c30 -29 32
-120 2 -150 -47 -47 -110 -4 -110 75 0 79 59 120 108 75z"/>
<path d="M1438 1609 c-11 -6 -18 -22 -18 -39 0 -20 -5 -30 -15 -30 -8 0 -15
-7 -15 -15 0 -8 7 -15 15 -15 12 0 15 -17 15 -91 0 -110 8 -129 56 -129 29 0
35 3 30 16 -3 9 -6 18 -6 20 0 2 -9 4 -20 4 -19 0 -20 7 -20 90 0 83 1 90 20
90 11 0 20 7 20 15 0 8 -9 15 -19 15 -16 0 -20 8 -23 39 -3 35 -5 38 -20 30z"/>
<path d="M6580 1600 c-29 -29 -40 -63 -40 -126 0 -93 33 -134 108 -134 33 0
45 6 67 31 14 17 24 37 22 43 -6 17 -37 19 -37 2 0 -16 -37 -46 -58 -46 -22 0
-62 48 -62 75 0 25 1 25 84 25 l85 0 -6 38 c-8 48 -28 89 -52 102 -33 17 -89
12 -111 -10z"/>
<path d="M6800 1424 c0 -181 1 -195 18 -192 13 2 18 17 22 68 3 38 8 60 13 53
5 -7 26 -13 47 -13 45 0 74 29 91 92 13 51 -3 133 -33 165 -26 28 -83 31 -110
6 -17 -15 -18 -15 -18 0 0 10 -7 17 -15 17 -13 0 -15 -28 -15 -196z m140 134
c50 -82 -2 -215 -69 -178 -44 23 -50 145 -10 189 28 30 56 26 79 -11z"/>
<path d="M7187 1609 c-29 -17 -47 -65 -47 -129 0 -100 31 -140 108 -140 49 0
87 38 97 100 17 100 -28 180 -102 180 -21 0 -46 -5 -56 -11z m76 -30 c31 -14
47 -48 47 -100 0 -80 -47 -126 -95 -95 -51 34 -53 155 -2 191 26 18 21 18 50
4z"/>
<path d="M7374 1603 c3 -10 21 -69 41 -131 19 -63 35 -124 35 -136 0 -27 -27
-66 -46 -66 -8 0 -14 -9 -14 -20 0 -30 45 -27 66 5 15 23 113 326 114 353 0 6
-7 12 -15 12 -9 0 -23 -29 -40 -87 -15 -49 -30 -99 -34 -113 -8 -27 -5 -35
-57 145 -12 43 -20 55 -35 55 -15 0 -19 -5 -15 -17z"/>
<path d="M7620 1480 c0 -133 1 -140 20 -140 19 0 20 7 20 103 0 105 7 128 42
140 9 3 24 0 35 -8 15 -11 19 -30 21 -124 3 -83 7 -111 17 -111 9 0 14 28 17
106 3 97 6 108 27 125 28 23 35 23 55 3 13 -12 16 -39 16 -125 0 -102 1 -109
20 -109 19 0 20 7 20 111 0 105 -8 144 -34 161 -22 15 -73 8 -91 -12 l-18 -20
-14 20 c-17 24 -69 27 -101 4 -20 -14 -22 -14 -22 0 0 9 -7 16 -15 16 -13 0
-15 -22 -15 -140z"/>
<path d="M8010 1600 c-29 -29 -40 -63 -40 -126 0 -93 33 -134 108 -134 33 0
45 6 67 31 14 17 24 37 22 43 -6 17 -37 19 -37 2 0 -16 -37 -46 -58 -46 -22 0
-62 48 -62 75 0 25 1 25 84 25 l85 0 -6 38 c-8 48 -28 89 -52 102 -33 17 -89
12 -111 -10z"/>
<path d="M8230 1480 c0 -133 1 -140 20 -140 19 0 20 7 20 103 0 107 3 117 34
134 53 29 76 -14 76 -142 0 -78 3 -95 15 -95 13 0 15 20 15 120 0 107 -2 122
-20 140 -24 24 -82 27 -104 5 -8 -8 -17 -15 -20 -15 -3 0 -6 7 -6 15 0 8 -7
15 -15 15 -13 0 -15 -22 -15 -140z"/>
<path d="M1584 1529 c-32 -16 -54 -62 -54 -114 0 -83 37 -124 111 -125 81 0
131 68 115 156 -11 56 -54 94 -108 93 -24 0 -52 -5 -64 -10z m99 -33 c42 -32
40 -143 -3 -166 -57 -31 -110 11 -110 87 0 72 63 117 113 79z"/>
<path d="M2114 1529 c-32 -16 -54 -62 -54 -114 0 -83 37 -124 111 -125 81 0
131 68 115 156 -11 56 -54 94 -108 93 -24 0 -52 -5 -64 -10z m99 -33 c42 -32
40 -143 -3 -166 -57 -31 -110 11 -110 87 0 72 63 117 113 79z"/>
</g>
</svg>
